<?xml version="1.0" encoding="utf-8"?>
<!-- Generator: Adobe Illustrator 16.0.0, SVG Export Plug-In . SVG Version: 6.00 Build 0)  -->
<!DOCTYPE svg PUBLIC "-//W3C//DTD SVG 1.1//EN" "http://www.w3.org/Graphics/SVG/1.1/DTD/svg11.dtd">
<svg version="1.1" id="Layer_1" xmlns="http://www.w3.org/2000/svg" xmlns:xlink="http://www.w3.org/1999/xlink" x="0px" y="0px"
	 width="50px" height="61.825px" viewBox="176.148 129.803 50 61.825" enable-background="new 176.148 129.803 50 61.825"
	 xml:space="preserve">
<g>
	<g>
		<path fill="none" d="M193.314,151.599c0.351-0.522,0.742-1.029,1.17-1.509C193.99,150.544,193.577,151.038,193.314,151.599z"/>
	</g>
	<g>
		<path fill="none" d="M213.639,132.813c0,0,0,0,0-0.002C213.605,132.688,213.581,132.599,213.639,132.813z"/>
	</g>
	<g>
		<path fill="none" d="M199.139,142.184c0.05,0.082,0.096,0.163,0.141,0.242c0.058-0.044,0.119-0.086,0.181-0.125
			C199.354,142.261,199.247,142.221,199.139,142.184z"/>
	</g>
	<g>
		<path fill="none" d="M198.649,146.992c0.03-0.042,0.058-0.085,0.086-0.128c-0.114,0.112-0.233,0.222-0.357,0.33
			c0.056-0.024,0.112-0.048,0.169-0.071C198.588,147.069,198.626,147.021,198.649,146.992z"/>
	</g>
	<g>
		<path fill="none" d="M223.446,173.084c0.188-0.562,0.333-1.153,0.388-1.745c0.067-0.755,0.067-1.512-0.002-2.267
			C223.942,170.422,223.831,171.784,223.446,173.084z"/>
	</g>
	<g>
		<g>
			<path fill="#FEC20F" d="M196.342,188.883c-0.499-1.798-1.023-3.588-1.509-5.39c-0.079-0.293-0.699-2.244-0.726-3.167
				c-0.091-0.015-0.181-0.027-0.271-0.043c-1.308-0.226-2.513-0.557-3.634-1.016c1.103,2.184,2.155,4.401,3.001,6.696
				C193.792,187.562,194.59,188.56,196.342,188.883z"/>
		</g>
		<g>
			<path fill="#FEC20F" d="M191.872,187.805c-0.97-2.827-2.341-5.496-3.36-8.305c-0.08-0.221-0.377-0.834-0.535-1.386
				c-1.082-0.693-2.083-1.55-3.025-2.603c-0.259-0.289-0.752-0.322-1.342-0.281c0.583,0.941,1.225,2.3,1.294,2.459
				C186.592,181.566,187.301,186.448,191.872,187.805z"/>
		</g>
		<g>
			<path fill="#FEC20F" d="M214.095,186.973c2.597-2.023,2.929-7.086,4.121-10.658c-0.542,0.189-1.107,0.345-1.695,0.464
				c-0.486,0.098-0.979,0.161-1.474,0.214c0.13,1.222-0.005,3.148-0.026,3.353C214.801,182.563,214.484,184.778,214.095,186.973z"/>
		</g>
		<g>
			<path fill="#FEC20F" d="M201.075,189.508c-0.563-2.657-1.093-5.259-1.406-7.96c0.2-0.634,0.525-0.713,0.975-0.239
				c0.291,0.999,0.363,2.049,0.583,3.063c0.206,0.952,0.73,1.656,1.049,2.544c0.37,1.034,0.457,3.105,2.125,2.618
				c1.833-0.535,0.885-5.815,0.996-7.326c0.016-0.211,0.725-2.704,0.958-1.876c0.245,0.867,0.254,1.839,0.323,2.73
				c0.158,2.043,0.486,4.27,0.292,6.318c2.512-0.324,2.222-5.2,2.491-6.961c0.115-0.75,0.208-2.832,0.653-4.232
				c-1.568,0.667-3.194,1.204-4.849,1.608c-3.3,0.806-6.748,1.079-10.124,0.677c0.865,1.147,1.126,3.407,1.608,4.435
				C197.829,187.208,198.131,189.3,201.075,189.508z"/>
		</g>
		<g>
			<path fill="#FEC20F" d="M210.782,188.502c1.727-0.59,1.912-4.468,2.131-5.892c0.221-1.433,0.193-3.869,0.863-5.487
				c-0.755,0.085-1.499,0.203-2.209,0.447C211.983,179.965,210.894,187.532,210.782,188.502z"/>
		</g>
		<g>
			<path fill="#D7A728" d="M214.095,186.973c0.389-2.195,0.707-4.409,0.926-6.627c0.021-0.205,0.156-2.131,0.026-3.353
				c-0.424,0.045-0.849,0.083-1.271,0.132c-0.67,1.618-0.642,4.054-0.863,5.487c-0.219,1.423-0.404,5.302-2.131,5.892
				c0.112-0.97,1.202-8.538,0.785-10.932c-0.193,0.066-0.384,0.142-0.571,0.228c-0.291,0.136-0.585,0.264-0.88,0.39
				c-0.444,1.399-0.538,3.481-0.653,4.231c-0.27,1.761,0.021,6.637-2.491,6.961c0.194-2.048-0.134-4.274-0.292-6.318
				c-0.069-0.892-0.079-1.864-0.323-2.73c-0.233-0.827-0.942,1.666-0.958,1.876c-0.111,1.512,0.836,6.791-0.996,7.326
				c-1.668,0.488-1.755-1.583-2.125-2.618c-0.319-0.889-0.843-1.592-1.049-2.544c-0.22-1.015-0.292-2.064-0.583-3.063
				c-0.45-0.474-0.775-0.395-0.975,0.239c0.313,2.701,0.843,5.303,1.406,7.96c-2.944-0.208-3.246-2.3-4.324-4.6
				c-0.482-1.029-0.744-3.288-1.608-4.436c-0.346-0.042-0.691-0.091-1.035-0.146c0.026,0.924,0.647,2.875,0.726,3.167
				c0.486,1.802,1.01,3.592,1.509,5.39c-1.752-0.324-2.55-1.321-3.139-2.919c-0.846-2.296-1.898-4.513-3.001-6.697
				c-0.78-0.319-1.52-0.702-2.225-1.154c0.158,0.552,0.455,1.165,0.535,1.386c1.019,2.81,2.39,5.479,3.36,8.305
				c-4.57-1.357-5.28-6.239-6.968-10.116c-0.069-0.161-0.711-1.519-1.294-2.459c-0.331,0.022-0.691,0.068-1.06,0.105
				c0.073,1.343,0.98,3.235,1.282,4.106c0.646,1.871,1.351,3.727,2.129,5.548c0.958,2.241,2.125,3.493,4.435,4.297
				c7.021,2.449,15.351,3.769,22.392,0.681c3.949-0.208,5.105-6.995,5.897-9.861c0.391-1.414,0.568-2.767,0.624-4.232
				c-0.352,0.162-0.716,0.309-1.092,0.441C217.023,179.887,216.691,184.949,214.095,186.973z"/>
		</g>
	</g>
	<g>
		<path fill="#9EDCF0" d="M213.353,157.808l-0.33,1.048l-0.569,1.792c0.223-0.043,0.448-0.071,0.677-0.079
			c0.624-0.023,1.665,0.079,1.998,0.699c0.107,0.199,0.006,0.41-0.197,0.484c-0.305,0.111-0.632,0.002-0.949-0.012
			c-0.329-0.016-0.663-0.044-0.992-0.016c-0.023,0.002-0.044,0.006-0.066,0.008c-0.641,0.068-1.23,0.296-1.796,0.598
			c-0.229,0.123-0.45,0.254-0.662,0.397c-0.042,0.033-0.086,0.063-0.131,0.092c-0.308,0.217-0.598,0.458-0.87,0.728
			c-0.103,0.102-0.206,0.201-0.31,0.301c0.141,0.089,0.279,0.181,0.414,0.275c0.673,0.473,1.361,1.003,1.877,1.65
			c0.462,0.579,1.053,1.473,0.745,2.238c-0.005,0.014-0.011,0.028-0.017,0.042c-0.086,0.191-0.326,0.244-0.51,0.208
			c-0.379-0.076-0.594-0.397-0.866-0.637c-0.286-0.251-0.516-0.552-0.774-0.831c-0.265-0.285-0.545-0.552-0.843-0.8
			c-0.231-0.191-0.471-0.371-0.723-0.536c-0.047-0.031-0.096-0.06-0.144-0.09c-1.116-0.708-2.348-1.258-3.613-1.636
			c-1.308-0.392-2.684-0.639-4.051-0.667c-0.653-0.013-1.293,0.042-1.925,0.216c-0.596,0.164-1.279,0.294-1.825,0.59
			c-0.248,0.133-0.498-0.185-0.3-0.39c0.264-0.272,0.474-0.551,0.796-0.761c0.324-0.21,0.661-0.403,1.027-0.533
			c0.699-0.249,1.432-0.391,2.168-0.483c0.127-0.404,0.281-0.901,0.433-1.404c0.074-0.24,0.146-0.479,0.217-0.718l0.02-0.067
			c0.079-0.261,0.157-0.523,0.232-0.785c0.078-0.262,0.154-0.525,0.229-0.787c0.063-0.213,0.123-0.427,0.183-0.642l0.042-0.146
			c0.149-0.526,0.298-1.051,0.443-1.578L202.83,154c0.156-0.563,0.298-1.07,0.443-1.578l0.227-0.788
			c0.076-0.262,0.153-0.524,0.23-0.786c0.068-0.233,0.139-0.466,0.209-0.699l0.026-0.087c0.079-0.261,0.158-0.522,0.239-0.783
			c0.14-0.457,0.295-0.954,0.49-1.563c0.085-0.266,0.173-0.539,0.264-0.815c-1.297-2.057-3.548-4.096-5.819-4.963
			c-0.063,0.039,0.058,0.202,0,0.247c1.115,2.001,0.723,3.573-0.404,4.68c-0.029,0.043-0.056,0.086-0.085,0.128
			c-0.024,0.028-0.061,0.076-0.103,0.129c-0.057,0.023-0.113,0.047-0.169,0.071c-1.159,0.999-2.744,1.604-3.893,2.658
			c-0.428,0.479-1.17,1.223-1.17,1.747c-0.076,0.163-0.141,0.332-0.19,0.508c1.588,0.188,5.545,2.695,4.361,4.97
			c-0.072,0.138-1.365-1.627-1.586-1.858c-0.743-0.776-1.672-1.093-2.716-1.231c-1.819-0.242-3.727,0.223-5.307,1.133
			c-1.854,1.068-2.555,2.56-3.088,4.54c-0.377,1.399-0.584,1.573,0.902,2.029c0.672-0.088,1.113,0.121,1.322,0.627
			c-0.086,0.287-3.744,0.277-4.311,0.429c-1.138,0.305-2.179,1.092-2.904,2.002c-0.806,1.01-1.31,2.225-1.509,3.496
			c-0.491,3.145,1.65,6.393,5.002,6.607c-0.374-0.318-0.404-0.576-0.093-0.773c1.696,0.629,3.005,2.919,4.515,3.97
			c1.568,1.091,3.418,1.782,5.254,2.275c4.416,1.185,9.242,0.983,13.661-0.083c3.968-0.958,8.079-2.711,10.976-5.677
			c0.424-0.433,3.323-4.055,3.051-4.525c0.689,1.196,0.044,4.01-0.27,5.181c3.204-3.941,2.205-10.839-0.901-14.539
			c-0.112-0.133-3.833-3.643-5.49-4.824c-0.12,0.43-0.253,0.856-0.398,1.274C213.517,157.357,213.436,157.583,213.353,157.808z
			 M195.944,152.179c-2.975,0,2.601-3.831,2.819-3.937c-0.181,0.086-0.893,0.43,0-0.001l0,0l0,0c0.046-0.022,0.058-0.027,0,0
			C199.954,147.668,197.375,152.179,195.944,152.179z M180.278,169.417c-0.987,1.637-0.938-1.983-0.917-2.038
			c0.596-1.603,3.139-3.999,5.058-3.426c-0.002,0-0.003-0.001-0.006-0.002c-0.009-0.002-0.02-0.005-0.03-0.008
			c-0.024-0.007-0.046-0.014-0.066-0.021l0,0c-0.022-0.006-0.045-0.013-0.067-0.02c-0.009-0.003-0.018-0.006-0.027-0.008
			c-0.005-0.002-0.011-0.003-0.016-0.005c-0.012-0.003-0.022-0.007-0.031-0.01c-0.003,0-0.006-0.002-0.008-0.002
			c-0.008-0.002-0.014-0.004-0.019-0.005c-0.019-0.005-0.022-0.007,0,0c0.005,0.002,0.012,0.003,0.019,0.005
			c0.002,0,0.005,0.002,0.008,0.002c0.009,0.003,0.02,0.006,0.031,0.01c0.005,0.001,0.01,0.003,0.016,0.005
			c0.009,0.002,0.018,0.005,0.027,0.008c0.02,0.006,0.043,0.012,0.067,0.02l0,0c0.02,0.006,0.042,0.013,0.066,0.021
			c0.011,0.003,0.021,0.006,0.03,0.008c0.012,0.004,0.023,0.007,0.032,0.01c0.009,0.003,0.016,0.004,0.02,0.006
			c0.001,0,0.002,0,0.004,0c0.002,0,0.002,0,0.002,0s0,0-0.002,0c-0.001,0-0.002,0-0.004,0c-0.003-0.002-0.01-0.003-0.02-0.006
			c-0.007-0.002-0.015-0.005-0.026-0.008C184.959,164.115,181.059,168.656,180.278,169.417z M188.307,158.787
			c-0.274,0.321-0.753,1.731-1.257,1.731c-2.104,0,1.317-7.78,5.006-5.125c-0.072-0.052-0.195-0.141-0.212-0.153
			c0.01,0.007,0.069,0.049,0.212,0.153c0.081,0.059,0.057,0.041,0,0C193.068,156.123,188.836,158.167,188.307,158.787z
			 M202.948,165.857c-1.286-0.192-2.189-0.836-3.77-0.715c-0.283,0.022-0.727,0.252-0.827-0.341c-0.292-1.713,9.074-0.6,9.881,2.857
			c-0.002-0.008-0.002-0.01,0,0.001c0.103,0.439,0.014,0.057,0,0C208.673,169.557,203.423,165.928,202.948,165.857z"/>
	</g>
	<g>
		<path fill="#E4F5FD" d="M192.057,155.394C192.113,155.434,192.138,155.452,192.057,155.394c-0.144-0.104-0.202-0.146-0.212-0.153
			C191.861,155.252,191.983,155.34,192.057,155.394c-3.69-2.656-7.11,5.124-5.007,5.124c0.504,0,0.983-1.41,1.257-1.731
			C188.836,158.167,193.068,156.123,192.057,155.394z"/>
	</g>
	<g>
		<path fill="none" d="M184.445,163.961c0.009,0.002,0.016,0.004,0.02,0.006"/>
	</g>
	<g>
		<path fill="none" d="M184.176,163.881c0.009,0.002,0.02,0.006,0.031,0.009"/>
	</g>
	<g>
		<path fill="none" d="M184.468,163.968c0.002,0,0.002,0,0.002,0"/>
	</g>
	<g>
		<path fill="none" d="M184.148,163.873c0.005,0.002,0.012,0.003,0.019,0.005"/>
	</g>
	<g>
		<path fill="none" d="M184.167,163.878c0.003,0,0.005,0.002,0.008,0.003"/>
	</g>
	<g>
		<path fill="#E4F5FD" d="M184.413,163.952c0.002,0.001,0.004,0.001,0.006,0.002c0.011,0.003,0.019,0.005,0.026,0.008
			C184.437,163.958,184.425,163.956,184.413,163.952z"/>
	</g>
	<g>
		<path fill="#E4F5FD" d="M184.148,163.873C184.126,163.866,184.129,163.867,184.148,163.873L184.148,163.873z"/>
	</g>
	<g>
		<path fill="none" d="M184.383,163.943c0.011,0.003,0.021,0.006,0.03,0.009"/>
	</g>
	<g>
		<path fill="none" d="M184.317,163.923c0.02,0.005,0.042,0.012,0.065,0.02"/>
	</g>
	<g>
		<path fill="#E4F5FD" d="M179.361,167.379c-0.02,0.054-0.07,3.675,0.917,2.038c0.78-0.761,4.681-5.302,4.141-5.463
			C182.5,163.38,179.957,165.777,179.361,167.379z"/>
	</g>
	<g>
		<path fill="none" d="M184.468,163.968c-0.001,0-0.002-0.001-0.004-0.001"/>
	</g>
	<g>
		<path fill="none" d="M184.207,163.89c0.005,0.001,0.01,0.003,0.016,0.005"/>
	</g>
	<g>
		<path fill="none" d="M184.223,163.895c0.009,0.002,0.018,0.005,0.027,0.008"/>
	</g>
	<g>
		<path fill="#E4F5FD" d="M184.317,163.923c-0.025-0.007-0.048-0.015-0.068-0.021C184.271,163.91,184.295,163.916,184.317,163.923z"
			/>
	</g>
	<g>
		<line fill="none" x1="184.317" y1="163.923" x2="184.317" y2="163.923"/>
	</g>
	<g>
		<path fill="#E4F5FD" d="M198.763,148.241L198.763,148.241C197.87,148.672,198.582,148.329,198.763,148.241
			c-0.219,0.106-5.794,3.938-2.819,3.938C197.375,152.179,199.954,147.668,198.763,148.241z"/>
	</g>
	<g>
		<path fill="#E4F5FD" d="M198.763,148.241L198.763,148.241C198.821,148.214,198.809,148.219,198.763,148.241z"/>
	</g>
	<g>
		<path fill="#E4F5FD" d="M208.231,167.658C208.229,167.648,208.229,167.649,208.231,167.658c-0.807-3.457-10.173-4.57-9.881-2.857
			c0.101,0.593,0.544,0.363,0.827,0.34c1.581-0.12,2.484,0.524,3.77,0.716C203.423,165.928,208.673,169.557,208.231,167.658
			C208.245,167.716,208.334,168.097,208.231,167.658z"/>
	</g>
	<g>
		<path fill="#00AEEF" d="M225.359,165.484C225.349,165.448,225.35,165.452,225.359,165.484L225.359,165.484z"/>
	</g>
	<g>
		<path fill="#00AEEF" d="M225.631,166.408C225.631,166.408,225.631,166.409,225.631,166.408c0.018,0.063,0.035,0.12,0.052,0.175
			C225.666,166.525,225.648,166.466,225.631,166.408z"/>
	</g>
	<g>
		<path fill="#00AEEF" d="M225.683,166.583C225.883,167.264,226.038,167.791,225.683,166.583L225.683,166.583z"/>
	</g>
	<g>
		<path fill="#00AEEF" d="M225.607,166.328c0.007,0.025,0.015,0.051,0.023,0.077c0,0.001,0,0.001,0,0.002
			C225.623,166.38,225.616,166.354,225.607,166.328z"/>
	</g>
	<g>
		<path fill="#55C7DD" d="M225.631,166.409c0-0.001,0-0.001,0-0.001s0-0.001,0-0.002c-0.952-3.233-3.15-6.26-5.824-8.104
			c-0.779-0.539-3.99-2.665-5.673-2.977c-0.044,0.178-0.092,0.355-0.141,0.531c1.657,1.182,5.167,4.777,5.278,4.91
			c3.106,3.7,4.316,10.512,1.113,14.453c0.314-1.171,0.959-3.985,0.271-5.181c0.271,0.47-2.627,4.091-3.052,4.525
			c-2.897,2.965-7.007,4.719-10.976,5.677c-4.419,1.066-9.245,1.267-13.661,0.083c-1.835-0.493-3.686-1.184-5.254-2.275
			c-1.51-1.05-2.818-3.341-4.514-3.97c-0.313,0.197-0.282,0.456,0.093,0.773c-3.353-0.215-5.494-3.462-5.002-6.607
			c0.198-1.271,0.703-2.485,1.508-3.496c0.725-0.91,1.767-1.697,2.904-2.002c0.567-0.152,4.225-0.142,4.311-0.429
			c-0.208-0.507-0.649-0.716-1.321-0.627c-1.487-0.457-1.28-0.63-0.903-2.029c0.534-1.98,1.234-3.472,3.089-4.539
			c1.58-0.911,3.488-1.375,5.307-1.133c1.044,0.138,1.972,0.455,2.715,1.231c0.222,0.23,1.515,1.996,1.587,1.858
			c1.184-2.274-2.772-4.782-4.361-4.97c0.049-0.175,0.114-0.344,0.19-0.507c0.263-0.563,0.676-1.055,1.17-1.509
			c1.149-1.055,2.735-1.898,3.894-2.897c0.125-0.107,0.244-0.217,0.357-0.329c1.126-1.106,1.66-2.437,0.544-4.438
			c-0.044-0.08-0.091-0.16-0.141-0.242c0.108,0.037,0.215,0.077,0.321,0.117c2.272,0.867,4.201,2.542,5.499,4.599
			c0.08-0.245,0.161-0.493,0.245-0.743c0.132-0.396,0.273-0.81,0.427-1.259c-1.861-1.571-7.1-5.572-7.502-3.383
			c-0.112,0.614,0.215,1.282,0.451,1.899c0.079,0.207,0.148,0.407,0.187,0.599c0.076,0.375,0.068,0.717-0.004,1.034
			c-0.267,1.184-1.424,2-2.437,2.681c-1.267,0.851-2.689,1.666-3.521,2.996c-0.269,0.413-0.454,0.857-0.554,1.335
			c-1.098,0.005-2.198,0.222-3.234,0.574c-3.731,1.269-5.895,4.599-5.151,8.588c-6.306-1.032-9.808,7.976-6.362,12.514
			c0.74,0.974,1.707,1.583,2.838,2.005c0.525,0.195,1.163,0.225,1.785,0.228c0.369,0.002,0.733-0.005,1.064,0.007
			c0.591,0.022,1.078,0.107,1.305,0.421c0.827,1.146,1.733,2.104,2.735,2.907c0.653,0.524,1.349,0.981,2.091,1.381
			c1.067,0.574,2.23,1.031,3.507,1.393c0.088,0.025,0.177,0.047,0.266,0.072c0.336,0.091,0.674,0.176,1.014,0.254
			c3.315,0.755,6.772,0.845,10.139,0.391c1.688-0.228,3.362-0.589,4.991-1.087c0.308-0.094,0.613-0.191,0.917-0.295
			c0.196-0.067,0.393-0.122,0.593-0.167c0.731-0.168,1.483-0.207,2.243-0.212c0.424-0.004,0.851,0.002,1.277,0.002
			c0.497-0.001,0.994-0.01,1.488-0.058c0.597-0.057,1.177-0.152,1.734-0.282c0.388-0.091,0.766-0.2,1.133-0.324
			C224.322,178.44,227.45,172.586,225.631,166.409z"/>
	</g>
	<g>
		<path fill="#00AEEF" d="M225.607,166.328c-0.042-0.143-0.078-0.265-0.108-0.369C225.533,166.075,225.57,166.2,225.607,166.328z"/>
	</g>
	<g>
		<path fill="none" d="M225.419,165.689c0.002,0.004,0.003,0.009,0.004,0.014"/>
	</g>
	<g>
		<path fill="#00AEEF" d="M225.382,165.561c-0.01-0.033-0.018-0.06-0.022-0.077C225.364,165.5,225.372,165.526,225.382,165.561z"/>
	</g>
	<g>
		<path fill="#00AEEF" d="M225.419,165.689c-0.015-0.052-0.027-0.095-0.037-0.129C225.392,165.596,225.404,165.64,225.419,165.689z"
			/>
	</g>
	<g>
		<path fill="none" d="M225.423,165.704c0.007,0.021,0.013,0.044,0.021,0.069"/>
	</g>
	<g>
		<path fill="#00AEEF" d="M225.499,165.959c-0.02-0.067-0.038-0.129-0.055-0.187C225.46,165.828,225.478,165.889,225.499,165.959z"
			/>
	</g>
	<g>
		<path fill="#ED1C24" d="M215.202,143.534c0.227,0.171,0.433,0.351,0.614,0.534c0.102,0.103,0.193,0.209,0.269,0.3
			c0.088,0.115,0.166,0.216,0.229,0.329c0.025,0.04,0.047,0.083,0.067,0.125l0.043,0.091c0.02,0.044,0.041,0.091,0.056,0.14
			c0.046,0.137,0.07,0.259,0.07,0.369c0.001,0.015,0,0.033-0.001,0.051l-0.001,0.039c0,0.024-0.004,0.045-0.007,0.065l-0.009,0.058
			l-0.044,0.146l-0.146,0.419c-0.044,0.395-0.175,0.771-0.391,1.122l-0.209,0.601c-0.086,0.247-0.173,0.5-0.26,0.752
			c-0.11,0.41-0.222,0.818-0.324,1.225c-0.131,0.518-0.269,1.033-0.412,1.548c-0.091,0.684-0.188,1.367-0.271,2.051
			c-0.027,0.224-0.062,0.448-0.101,0.672l0.012-0.039c0.106-0.35,0.21-0.7,0.315-1.05c0.052-0.173,0.103-0.347,0.155-0.52
			c0.137-0.461,0.285-0.96,0.461-1.571c0.134-0.464,0.275-0.965,0.446-1.577c0.113-0.407,0.224-0.813,0.334-1.221l0.098-0.361
			l0.566-2.137l0.006-0.058c0.004-0.038,0.009-0.082,0.007-0.117l-0.002-0.059c0-0.018,0-0.037-0.003-0.053
			c-0.012-0.136-0.049-0.274-0.113-0.426c-0.021-0.056-0.048-0.105-0.076-0.158l-0.045-0.078c-0.028-0.048-0.056-0.093-0.087-0.135
			c-0.08-0.12-0.173-0.229-0.263-0.331l-0.048-0.05c-0.032-0.034-0.063-0.067-0.096-0.099l-0.044-0.042
			c-0.035-0.034-0.07-0.067-0.107-0.1c-0.191-0.173-0.405-0.339-0.652-0.506c-0.212-0.146-0.442-0.285-0.701-0.428l-0.053-0.028
			c-0.042-0.023-0.083-0.046-0.126-0.067l-0.23-0.118c-0.107-0.052-0.215-0.103-0.323-0.153c-0.028-0.012-0.057-0.024-0.085-0.037
			c0.028,0.014,0.055,0.026,0.083,0.04C214.313,142.937,214.785,143.221,215.202,143.534z"/>
	</g>
	<g>
		<path fill="#ED1C24" d="M212.885,158.982c-0.237,0.547-0.5,1.084-0.803,1.604c-0.035,0.06-0.072,0.12-0.108,0.179
			c0.124-0.037,0.249-0.068,0.375-0.096L212.885,158.982z"/>
	</g>
	<g>
		<path fill="#F1697B" d="M214.687,143.485c0.05,0.014,0.099,0.031,0.148,0.049c0.04-0.012,0.085-0.006,0.124,0.033
			c0.013,0.013,0.026,0.025,0.04,0.039c0.201,0.103,0.393,0.249,0.564,0.42c0.045,0.032,0.09,0.065,0.132,0.101
			c0.027,0.024,0.037,0.054,0.036,0.084c0.012,0.015,0.023,0.03,0.035,0.044c0.018-0.008,0.039-0.009,0.058-0.001
			c0.027,0.011,0.054,0.026,0.079,0.041c-0.047-0.054-0.098-0.11-0.152-0.164c-0.177-0.179-0.38-0.356-0.603-0.523
			c-0.414-0.31-0.879-0.591-1.385-0.834c-0.168-0.081-0.33-0.154-0.489-0.221l-0.078,0.587c0.364,0.156,0.708,0.327,1.02,0.509
			C214.31,143.512,214.478,143.43,214.687,143.485z"/>
	</g>
	<g>
		<path fill="#F1697B" d="M205.27,162.168c0.721,0.209,1.441,0.461,2.139,0.765c0.282-0.962,0.591-1.916,0.911-2.866
			c0.464-2.185,0.989-4.354,1.582-6.509c0.443-1.611,0.903-3.217,1.414-4.809c0.212-0.658,0.42-1.317,0.65-1.967
			c0.004-0.038,0.01-0.074,0.014-0.111c0.006-0.055,0.011-0.109,0.016-0.164c-0.328-0.07-0.662-0.155-0.997-0.259
			c-1.166-0.359-2.207-0.876-2.931-1.457c-0.737-0.589-1.062-1.176-0.914-1.653c0.17-0.552,0.947-0.869,2.132-0.869
			c0.593,0,1.245,0.08,1.919,0.231l0.199-0.547c-0.227-0.051-0.468-0.096-0.735-0.137c-0.56-0.085-1.104-0.116-1.614-0.092
			c-0.28,0.014-0.546,0.044-0.795,0.093c-0.121,0.022-0.246,0.054-0.384,0.095c-0.112,0.037-0.243,0.081-0.361,0.137
			c-0.041,0.018-0.078,0.038-0.114,0.058c-0.019,0.01-0.038,0.02-0.057,0.031c-0.011,0.007-0.027,0.017-0.042,0.027
			c-0.039,0.024-0.075,0.047-0.108,0.074c-0.11,0.083-0.191,0.163-0.25,0.247c-0.011,0.014-0.017,0.023-0.022,0.034l-0.024,0.039
			c-0.012,0.018-0.02,0.036-0.027,0.054l-0.064,0.18l-0.534,1.978c-0.134,0.491-0.277,1.008-0.438,1.58
			c-0.159,0.562-0.309,1.077-0.457,1.574c-0.169,0.568-0.325,1.082-0.474,1.569l-0.031,0.099c-0.07,0.227-0.141,0.455-0.213,0.683
			c-0.082,0.26-0.164,0.521-0.248,0.781c-0.082,0.26-0.167,0.52-0.252,0.779l-0.256,0.778c-0.171,0.519-0.347,1.037-0.522,1.555
			l-0.526,1.551c-0.158,0.464-0.314,0.931-0.47,1.396l-0.052,0.157c-0.087,0.26-0.173,0.518-0.258,0.778
			c-0.085,0.259-0.17,0.519-0.254,0.778c-0.084,0.26-0.168,0.52-0.25,0.78c-0.082,0.26-0.165,0.52-0.245,0.781
			c-0.118,0.377-0.241,0.778-0.394,1.277C202.386,161.539,203.871,161.76,205.27,162.168z"/>
	</g>
	<g>
		<path fill="#F1697B" d="M215.76,147.584c0,0.001,0,0.002-0.001,0.003L215.76,147.584
			C215.76,147.583,215.76,147.584,215.76,147.584z"/>
	</g>
	<g>
		<path fill="#ED1C24" d="M201.233,160.365c0.081-0.261,0.164-0.521,0.246-0.781c0.082-0.261,0.166-0.52,0.25-0.781
			c0.083-0.259,0.168-0.52,0.254-0.779s0.171-0.518,0.259-0.777l0.052-0.158c0.156-0.466,0.312-0.931,0.47-1.396l0.527-1.552
			c0.175-0.518,0.35-1.035,0.521-1.554l0.256-0.777c0.085-0.26,0.169-0.519,0.251-0.779c0.084-0.261,0.167-0.521,0.249-0.781
			c0.072-0.227,0.142-0.454,0.212-0.682l0.031-0.099c0.15-0.487,0.305-1,0.474-1.568c0.147-0.497,0.297-1.011,0.456-1.573
			c0.162-0.572,0.305-1.088,0.438-1.579l0.541-2.002c0.002-0.01,0.004-0.018,0.006-0.025l0.027-0.082l0.029-0.062
			c0.009-0.022,0.02-0.044,0.035-0.066l0.022-0.036c0.008-0.014,0.017-0.028,0.029-0.042c0.062-0.089,0.149-0.177,0.266-0.264
			c0.036-0.029,0.077-0.055,0.116-0.08c0.015-0.01,0.03-0.019,0.045-0.029c0.022-0.012,0.041-0.021,0.059-0.032
			c0.038-0.021,0.078-0.042,0.121-0.061c0.121-0.059,0.255-0.104,0.372-0.141c0.142-0.042,0.271-0.074,0.394-0.098
			c0.253-0.049,0.524-0.081,0.808-0.094c0.459-0.021,0.945,0.003,1.445,0.069c-0.073-0.012-0.146-0.024-0.219-0.034l-0.204-0.025
			c-0.041-0.005-0.082-0.009-0.122-0.013l-0.082-0.008c-0.287-0.027-0.547-0.041-0.796-0.041h-0.022
			c-0.298,0-0.567,0.018-0.823,0.053c-0.048,0.005-0.096,0.014-0.144,0.022l-0.063,0.01c-0.047,0.009-0.096,0.019-0.144,0.03
			l-0.059,0.013c-0.135,0.035-0.269,0.071-0.398,0.124c-0.052,0.018-0.099,0.04-0.149,0.063l-0.083,0.041
			c-0.05,0.026-0.101,0.054-0.149,0.086c-0.14,0.09-0.247,0.183-0.331,0.286c-0.016,0.015-0.024,0.029-0.034,0.043l-0.034,0.048
			c-0.019,0.023-0.032,0.048-0.046,0.074l-0.041,0.074l-0.043,0.105c-0.002,0.008-0.005,0.016-0.008,0.023
			c-0.002,0.008-0.005,0.017-0.009,0.025l-0.672,1.935c-0.194,0.564-0.366,1.072-0.527,1.551c-0.177,0.534-0.349,1.058-0.508,1.557
			c-0.194,0.61-0.35,1.106-0.49,1.563c-0.081,0.261-0.16,0.522-0.239,0.783l-0.026,0.087c-0.07,0.232-0.141,0.465-0.208,0.697
			c-0.077,0.261-0.155,0.524-0.23,0.786l-0.226,0.788c-0.146,0.508-0.287,1.015-0.443,1.578l-0.438,1.579
			c-0.145,0.527-0.294,1.053-0.443,1.579l-0.041,0.146c-0.061,0.214-0.121,0.429-0.183,0.642c-0.075,0.262-0.151,0.524-0.229,0.787
			c-0.076,0.262-0.154,0.524-0.233,0.785l-0.02,0.067c-0.072,0.239-0.143,0.479-0.217,0.718c-0.147,0.486-0.297,0.968-0.421,1.365
			c0.045-0.005,0.089-0.01,0.134-0.014C200.986,161.163,201.112,160.752,201.233,160.365z"/>
	</g>
	<g>
		<path fill="#EF4136" d="M213.272,142.554c0.16,0.067,0.321,0.14,0.489,0.221c0.506,0.243,0.972,0.524,1.385,0.834
			c0.223,0.168,0.426,0.344,0.604,0.523c0.054,0.054,0.105,0.11,0.152,0.164c-0.026-0.015-0.052-0.029-0.079-0.041
			c-0.019-0.008-0.041-0.007-0.058,0.001c-0.012-0.015-0.022-0.03-0.034-0.044c0-0.031-0.008-0.061-0.036-0.084
			c-0.042-0.036-0.087-0.069-0.132-0.101c-0.171-0.171-0.362-0.317-0.564-0.42c-0.013-0.014-0.026-0.026-0.04-0.039
			c-0.039-0.039-0.084-0.046-0.124-0.033c-0.049-0.018-0.098-0.035-0.148-0.049c-0.209-0.055-0.377,0.027-0.473,0.165
			c-0.313-0.182-0.655-0.353-1.02-0.509l-0.013,0.096l-0.084,0.634l-0.013,0.097l-0.047,0.361l-0.814-0.053l-1.626-0.104
			l0.332-0.912l0.032-0.088l0.211-0.583l0.032-0.087c-0.674-0.151-1.327-0.231-1.919-0.231c-1.185,0-1.961,0.316-2.132,0.869
			c-0.148,0.477,0.177,1.063,0.914,1.653c0.725,0.58,1.767,1.097,2.932,1.456c0.335,0.104,0.669,0.189,0.997,0.258
			c-0.005,0.055-0.01,0.11-0.016,0.164c-0.004,0.037-0.009,0.074-0.014,0.111c-0.23,0.65-0.438,1.31-0.65,1.968
			c-0.511,1.59-0.97,3.197-1.414,4.808c-0.592,2.155-1.118,4.325-1.582,6.509c-0.32,0.95-0.628,1.904-0.911,2.866
			c0.33,0.144,0.654,0.297,0.971,0.465c0.627-0.901,1.461-1.668,2.441-2.167c0.369-0.187,0.755-0.349,1.153-0.466
			c0.036-0.06,0.073-0.119,0.108-0.179c0.303-0.52,0.566-1.056,0.803-1.604l-0.536,1.687c0.035-0.007,0.07-0.014,0.105-0.021
			l0.569-1.793l0.33-1.048c0.083-0.225,0.164-0.451,0.242-0.679c0.145-0.418,0.278-0.844,0.398-1.274
			c0.049-0.176,0.097-0.354,0.141-0.531c0.015-0.061,0.028-0.121,0.042-0.182c0.052-0.17,0.104-0.34,0.156-0.511l0.143-0.474
			c0.107-0.349,0.211-0.7,0.315-1.05c0.051-0.173,0.103-0.347,0.155-0.52c0.138-0.461,0.285-0.96,0.461-1.572
			c0.134-0.464,0.276-0.965,0.447-1.577c0.113-0.407,0.225-0.813,0.335-1.221l0.628-2.34l0.038-0.167l0.006-0.063
			c0.004-0.04,0.01-0.089,0.008-0.131l-0.001-0.057c0-0.022-0.001-0.044-0.004-0.063c-0.012-0.143-0.052-0.291-0.12-0.451
			c-0.022-0.059-0.052-0.113-0.081-0.167l-0.046-0.081c-0.029-0.048-0.058-0.097-0.091-0.141c-0.083-0.124-0.178-0.235-0.271-0.34
			l-0.049-0.052c-0.032-0.034-0.064-0.068-0.099-0.101l-0.044-0.043c-0.035-0.035-0.071-0.069-0.108-0.102
			c-0.195-0.176-0.412-0.344-0.662-0.514c-0.216-0.147-0.448-0.288-0.71-0.433l-0.053-0.029c-0.043-0.024-0.086-0.047-0.129-0.069
			l-0.185-0.095l-0.048-0.023c-0.107-0.053-0.216-0.104-0.325-0.154c-0.176-0.08-0.359-0.156-0.545-0.229l-0.012,0.094
			L213.272,142.554z M215.76,147.584C215.76,147.584,215.76,147.583,215.76,147.584l-0.001,0.003
			C215.76,147.586,215.76,147.585,215.76,147.584z M213.804,142.689c0.106,0.049,0.215,0.101,0.322,0.153l0.23,0.117
			c0.043,0.021,0.085,0.044,0.127,0.067l0.053,0.029c0.26,0.142,0.489,0.282,0.701,0.427c0.247,0.168,0.46,0.334,0.652,0.507
			c0.037,0.032,0.071,0.066,0.106,0.099l0.045,0.043c0.032,0.032,0.063,0.065,0.095,0.099l0.048,0.051
			c0.089,0.102,0.183,0.21,0.263,0.331c0.031,0.042,0.058,0.086,0.086,0.135l0.044,0.078c0.028,0.052,0.055,0.102,0.077,0.158
			c0.064,0.152,0.101,0.291,0.113,0.427c0.002,0.017,0.002,0.034,0.002,0.053l0.002,0.059c0.002,0.036-0.002,0.079-0.007,0.118
			l-0.006,0.058l-0.566,2.137l-0.098,0.36c-0.111,0.408-0.221,0.814-0.334,1.221c-0.17,0.612-0.312,1.113-0.446,1.577
			c-0.177,0.611-0.324,1.111-0.461,1.572c-0.052,0.173-0.103,0.347-0.155,0.52c-0.104,0.35-0.208,0.701-0.315,1.05l-0.011,0.039
			c0.038-0.224,0.073-0.448,0.101-0.672c0.083-0.684,0.181-1.366,0.271-2.05c0.143-0.515,0.281-1.03,0.412-1.548
			c0.102-0.407,0.214-0.815,0.324-1.225c0.087-0.253,0.174-0.505,0.26-0.752l0.21-0.601c0.215-0.351,0.347-0.729,0.391-1.122
			l0.146-0.419l0.043-0.146l0.009-0.058c0.004-0.021,0.007-0.042,0.007-0.065l0.002-0.04c0.002-0.018,0.002-0.036,0.001-0.051
			c-0.001-0.11-0.024-0.231-0.07-0.369c-0.015-0.049-0.036-0.096-0.056-0.141l-0.043-0.091c-0.021-0.042-0.042-0.084-0.068-0.124
			c-0.063-0.112-0.141-0.215-0.229-0.33c-0.076-0.091-0.166-0.198-0.269-0.3c-0.182-0.183-0.388-0.361-0.614-0.533
			c-0.417-0.314-0.889-0.597-1.4-0.843c-0.028-0.014-0.056-0.026-0.084-0.04C213.747,142.665,213.776,142.676,213.804,142.689z"/>
	</g>
	<g>
		<path fill="#EF4136" d="M204.959,146.9c-0.09,0.278-0.179,0.55-0.265,0.816c-0.194,0.61-0.35,1.107-0.49,1.564
			c-0.081,0.26-0.161,0.521-0.239,0.783l-0.026,0.087c-0.07,0.233-0.14,0.466-0.208,0.698c-0.078,0.262-0.155,0.524-0.231,0.786
			l-0.227,0.788c-0.146,0.508-0.287,1.016-0.443,1.579l-0.439,1.579c-0.145,0.527-0.293,1.052-0.443,1.578l-0.042,0.147
			c-0.06,0.214-0.12,0.428-0.183,0.641c-0.075,0.262-0.151,0.524-0.229,0.786c-0.076,0.262-0.154,0.524-0.232,0.786l-0.02,0.066
			c-0.071,0.239-0.142,0.479-0.216,0.718c-0.152,0.503-0.307,1-0.434,1.405c0.02-0.002,0.039-0.006,0.059-0.008
			c0.014-0.001,0.028-0.002,0.042-0.004c0.124-0.397,0.273-0.879,0.421-1.365c0.074-0.239,0.145-0.479,0.216-0.719l0.02-0.066
			c0.08-0.261,0.157-0.524,0.233-0.786c0.077-0.262,0.154-0.524,0.229-0.787c0.063-0.214,0.123-0.428,0.183-0.642l0.042-0.146
			c0.149-0.526,0.297-1.052,0.443-1.579l0.438-1.579c0.156-0.563,0.298-1.071,0.444-1.578l0.227-0.788
			c0.076-0.262,0.152-0.524,0.23-0.785c0.068-0.233,0.138-0.465,0.208-0.698l0.026-0.087c0.079-0.26,0.158-0.521,0.239-0.782
			c0.14-0.457,0.295-0.954,0.489-1.563c0.161-0.5,0.332-1.024,0.509-1.558c0.161-0.48,0.333-0.988,0.526-1.552l0.672-1.935
			c0.003-0.009,0.006-0.017,0.009-0.025c0.002-0.008,0.006-0.015,0.008-0.023l0.043-0.105l0.041-0.075
			c0.015-0.025,0.028-0.051,0.046-0.073l0.035-0.049c0.009-0.013,0.019-0.027,0.034-0.042c0.083-0.104,0.191-0.197,0.331-0.287
			c0.047-0.032,0.099-0.059,0.149-0.086l0.083-0.041c0.05-0.022,0.098-0.044,0.149-0.062c0.129-0.053,0.262-0.088,0.398-0.124
			l0.059-0.013c0.049-0.01,0.097-0.021,0.145-0.03l0.062-0.011c0.048-0.008,0.095-0.016,0.144-0.021
			c0.256-0.036,0.525-0.053,0.823-0.053h0.022c0.249,0,0.51,0.014,0.797,0.041l0.082,0.008c0.041,0.004,0.082,0.007,0.122,0.013
			l0.204,0.024c0.072,0.011,0.146,0.023,0.218,0.034c-0.499-0.065-0.985-0.089-1.444-0.068c-0.284,0.014-0.556,0.045-0.808,0.094
			c-0.124,0.024-0.252,0.056-0.394,0.098c-0.116,0.037-0.25,0.083-0.372,0.142c-0.042,0.018-0.082,0.04-0.12,0.061
			c-0.019,0.01-0.037,0.02-0.059,0.032c-0.016,0.01-0.031,0.02-0.045,0.029c-0.039,0.024-0.08,0.05-0.116,0.079
			c-0.117,0.087-0.205,0.175-0.266,0.264c-0.012,0.014-0.021,0.029-0.029,0.043l-0.022,0.035c-0.015,0.022-0.025,0.045-0.034,0.066
			l-0.029,0.063l-0.027,0.082c-0.002,0.007-0.004,0.016-0.006,0.025l-0.541,2.002c-0.133,0.49-0.277,1.006-0.438,1.579
			c-0.159,0.562-0.308,1.076-0.456,1.573c-0.169,0.568-0.324,1.081-0.475,1.567l-0.031,0.1c-0.07,0.228-0.141,0.455-0.213,0.682
			c-0.082,0.26-0.164,0.521-0.248,0.781c-0.083,0.26-0.167,0.52-0.252,0.779l-0.255,0.778c-0.171,0.518-0.346,1.036-0.521,1.553
			l-0.527,1.552c-0.158,0.464-0.314,0.931-0.47,1.396l-0.053,0.157c-0.086,0.26-0.173,0.518-0.259,0.778
			c-0.085,0.259-0.17,0.52-0.253,0.779c-0.084,0.261-0.167,0.52-0.25,0.781c-0.083,0.259-0.166,0.52-0.246,0.781
			c-0.121,0.386-0.247,0.798-0.405,1.315c0.034-0.003,0.067-0.007,0.1-0.011c0.152-0.499,0.275-0.9,0.394-1.277
			c0.081-0.261,0.162-0.521,0.245-0.781c0.083-0.26,0.166-0.521,0.25-0.78c0.083-0.26,0.168-0.52,0.254-0.779
			c0.084-0.26,0.171-0.518,0.258-0.777l0.053-0.157c0.156-0.465,0.311-0.932,0.469-1.396l0.527-1.551
			c0.175-0.518,0.351-1.036,0.522-1.555l0.256-0.778c0.085-0.26,0.169-0.52,0.252-0.779c0.084-0.261,0.167-0.521,0.249-0.781
			c0.072-0.228,0.142-0.456,0.213-0.683l0.03-0.099c0.15-0.488,0.306-1.001,0.475-1.569c0.147-0.498,0.297-1.013,0.457-1.574
			c0.161-0.572,0.305-1.089,0.438-1.58l0.534-1.978l0.064-0.181c0.007-0.017,0.016-0.036,0.028-0.053l0.023-0.039
			c0.006-0.011,0.012-0.02,0.023-0.034c0.059-0.084,0.139-0.165,0.249-0.247c0.034-0.027,0.069-0.05,0.108-0.074
			c0.016-0.01,0.031-0.02,0.042-0.027c0.02-0.011,0.038-0.021,0.057-0.031c0.036-0.021,0.073-0.04,0.114-0.058
			c0.118-0.057,0.249-0.101,0.361-0.137c0.137-0.041,0.263-0.072,0.384-0.095c0.249-0.048,0.515-0.079,0.794-0.093
			c0.51-0.024,1.054,0.007,1.614,0.092c0.267,0.042,0.508,0.086,0.735,0.137l0.025-0.07l0.032-0.088
			c-0.257-0.061-0.512-0.113-0.764-0.157c-0.135-0.023-0.272-0.044-0.409-0.064l-0.205-0.025c-0.041-0.005-0.083-0.009-0.125-0.014
			l-0.082-0.008c-0.29-0.027-0.554-0.042-0.806-0.042h-0.022c-0.302,0-0.575,0.018-0.835,0.053
			c-0.049,0.006-0.098,0.015-0.146,0.022l-0.063,0.01c-0.049,0.009-0.099,0.02-0.149,0.031l-0.06,0.013
			c-0.14,0.036-0.277,0.073-0.409,0.127c-0.054,0.019-0.105,0.042-0.155,0.065l-0.087,0.043c-0.053,0.027-0.106,0.056-0.157,0.09
			c-0.147,0.094-0.262,0.194-0.349,0.301c-0.016,0.016-0.028,0.034-0.041,0.052l-0.033,0.046c-0.021,0.026-0.038,0.056-0.053,0.084
			l-0.043,0.079l-0.046,0.111c-0.004,0.011-0.007,0.02-0.01,0.028c-0.002,0.007-0.004,0.015-0.007,0.023l-0.672,1.936
			c-0.035,0.1-0.068,0.198-0.102,0.294c-0.154,0.449-0.294,0.863-0.426,1.259C205.121,146.407,205.038,146.656,204.959,146.9z"/>
	</g>
	<g>
		<path fill="#55C7DD" d="M197.399,162.722c-0.323,0.21-0.532,0.489-0.796,0.762c-0.198,0.204,0.052,0.521,0.3,0.388
			c0.545-0.295,1.229-0.426,1.825-0.59c0.632-0.174,1.272-0.228,1.926-0.215c1.367,0.028,2.743,0.275,4.051,0.667
			c1.265,0.378,2.497,0.929,3.613,1.636c0.047,0.031,0.097,0.059,0.143,0.09c0.252,0.166,0.493,0.345,0.723,0.537
			c0.298,0.247,0.578,0.514,0.843,0.799c0.259,0.278,0.488,0.579,0.774,0.832c0.272,0.239,0.487,0.561,0.866,0.636
			c0.184,0.037,0.424-0.016,0.51-0.208c0.007-0.014,0.012-0.028,0.018-0.042c0.308-0.766-0.283-1.658-0.745-2.238
			c-0.517-0.647-1.205-1.177-1.877-1.651c-0.136-0.095-0.274-0.186-0.414-0.274c0.104-0.1,0.207-0.2,0.31-0.301
			c0.271-0.27,0.562-0.511,0.87-0.728c0.045-0.029,0.089-0.059,0.131-0.091c0.212-0.143,0.433-0.275,0.662-0.398
			c0.566-0.302,1.155-0.53,1.796-0.598c0.022-0.002,0.043-0.005,0.066-0.008c0.329-0.029,0.663,0,0.992,0.015
			c0.316,0.015,0.644,0.124,0.949,0.012c0.204-0.075,0.304-0.286,0.197-0.485c-0.333-0.621-1.373-0.723-1.998-0.699
			c-0.229,0.008-0.455,0.037-0.677,0.079c-0.035,0.007-0.07,0.014-0.104,0.021c-0.126,0.027-0.251,0.059-0.375,0.096
			c-0.398,0.117-0.784,0.28-1.153,0.467c-0.98,0.497-1.814,1.265-2.441,2.166c-0.316-0.168-0.641-0.322-0.971-0.465
			c-0.697-0.303-1.418-0.555-2.139-0.765c-1.399-0.407-2.884-0.629-4.341-0.498c-0.034,0.003-0.066,0.007-0.1,0.01
			c-0.044,0.005-0.089,0.009-0.134,0.014c-0.014,0.002-0.028,0.002-0.042,0.005c-0.02,0.002-0.039,0.005-0.059,0.007
			c-0.736,0.092-1.468,0.234-2.168,0.483C198.061,162.318,197.723,162.511,197.399,162.722z"/>
	</g>
	<g>
		<polygon fill="#FEC20F" points="211.402,141.954 211.203,142.501 211.171,142.589 210.96,143.171 210.927,143.259 
			210.597,144.171 212.223,144.276 213.037,144.329 213.084,143.967 213.097,143.871 213.182,143.236 213.194,143.141 
			213.272,142.554 213.284,142.469 213.297,142.375 214.08,136.494 213.385,136.494 211.459,141.796 211.427,141.884 		"/>
	</g>
	<g>
		<path fill="#FBB040" d="M211.998,135.199C211.979,135.129,211.968,135.086,211.998,135.199L211.998,135.199z"/>
	</g>
	<g>
		<path fill="none" d="M211.998,135.199c0.001,0.003,0.002,0.007,0.003,0.011"/>
	</g>
	<g>
		<path fill="#FEC20F" d="M212.01,135.245c-0.135-0.509-1.78-2.453-2.544-1.698C208.13,134.865,212.473,136.996,212.01,135.245z"/>
	</g>
	<g>
		<path fill="#FBB040" d="M212.001,135.209c0.002,0.011,0.005,0.022,0.009,0.036C212.064,135.45,212.028,135.311,212.001,135.209z"
			/>
	</g>
	<g>
		<path fill="#FBB040" d="M212.321,129.897C212.337,129.896,212.295,129.894,212.321,129.897L212.321,129.897z"/>
	</g>
	<g>
		<path fill="#FBB040" d="M212.321,129.897C212.165,129.875,212.269,129.903,212.321,129.897L212.321,129.897z"/>
	</g>
	<g>
		<path fill="#FEC20F" d="M213.639,132.813c-0.059-0.214-0.034-0.125,0-0.002c-0.286-1.041-0.329-2.52-1.456-2.937
			C209.929,129.039,214.472,135.833,213.639,132.813z"/>
	</g>
	<g>
		<path fill="#FBB040" d="M213.639,132.812c0,0.001,0,0.001,0,0.001C213.751,133.22,213.686,132.982,213.639,132.812z"/>
	</g>
	<g>
		<path fill="#FBB040" d="M218.509,131.339c0.003,0.009,0.006,0.015,0.006,0.017C218.515,131.355,218.512,131.349,218.509,131.339z"
			/>
	</g>
	<g>
		<path fill="#FEC20F" d="M215.286,134.331c0.928,0.143,3.568-2.058,3.1-3.326C217.734,129.238,214.354,134.188,215.286,134.331z"/>
	</g>
	<g>
		<path fill="#FBB040" d="M218.377,130.982C218.375,130.977,218.375,130.977,218.377,130.982L218.377,130.982z"/>
	</g>
	<g>
		<path fill="#FBB040" d="M218.377,130.982c0.002,0.004,0.004,0.011,0.008,0.022c0.073,0.197,0.109,0.296,0.123,0.334
			C218.483,131.268,218.391,131.019,218.377,130.982z"/>
	</g>
	<g>
		<path fill="#FEC20F" d="M216.019,137.128c0.498,0.756,3.484,0.785,2.807-0.375C218.405,136.036,215.396,136.183,216.019,137.128z"
			/>
	</g>
	<g>
		<path fill="#FBB040" d="M218.825,136.753C218.963,136.99,218.608,136.382,218.825,136.753L218.825,136.753z"/>
	</g>
</g>
</svg>
