<?xml version="1.0" encoding="utf-8"?>
<!-- Generator: Adobe Illustrator 16.0.0, SVG Export Plug-In . SVG Version: 6.00 Build 0)  -->
<!DOCTYPE svg PUBLIC "-//W3C//DTD SVG 1.1//EN" "http://www.w3.org/Graphics/SVG/1.1/DTD/svg11.dtd">
<svg version="1.1" id="Layer_1" xmlns="http://www.w3.org/2000/svg" xmlns:xlink="http://www.w3.org/1999/xlink" x="0px" y="0px"
	 width="2000px" height="2000px" viewBox="0 0 2000 2000" enable-background="new 0 0 2000 2000" xml:space="preserve">
<g>
	<path fill="#E4F5FD" d="M749.999,1198.598l0.673-1.507c-2.333-0.745-4.148-1.972-5.444-3.676
		c-2.512-3.306-2.979-7.228-1.401-11.772c1.582-4.545,4.917-8.754,10.009-12.631c2.797-2.125,5.831-3.616,9.093-4.463
		c3.265-0.846,6.248-0.967,8.95-0.361c2.705,0.605,4.904,2.031,6.606,4.267c2.192,2.882,2.501,6.624,0.93,11.22
		c-1.577,4.596-4.581,8.583-9.016,11.953c-3.596,2.734-7.207,4.577-10.838,5.524l-4.043,8.709L749.999,1198.598z M759.192,1182.595
		c0.489,0.643,1.192,0.936,2.112,0.88c0.914-0.06,1.858-0.454,2.823-1.188c0.979-0.746,1.642-1.569,1.994-2.478
		c0.347-0.905,0.299-1.65-0.148-2.238c-0.51-0.67-1.253-0.986-2.223-0.941c-0.974,0.043-1.957,0.442-2.948,1.198
		c-0.964,0.735-1.597,1.549-1.898,2.448C758.607,1181.18,758.703,1181.948,759.192,1182.595z"/>
	<path fill="#E4F5FD" d="M790.459,1196.822l7.561,8.129l-23.208,21.585l-7.237-7.781l4.076-3.789c-2.2,0.557-4.043,0.718-5.53,0.481
		c-1.492-0.233-2.777-0.929-3.852-2.09c-0.909-0.979-1.459-2.148-1.645-3.51c-0.188-1.363-0.002-2.685,0.56-3.962
		c0.563-1.281,1.326-2.456,2.285-3.526c0.959-1.075,2.983-3.046,6.072-5.922l11.024-10.255l7.126,7.669l-11.428,10.629
		c-1.492,1.39-2.503,2.461-3.036,3.22c-0.533,0.762-0.447,1.51,0.246,2.258c0.356,0.387,0.839,0.563,1.441,0.527
		c0.608-0.033,0.979-0.116,1.12-0.246L790.459,1196.822z"/>
	<path fill="#E4F5FD" d="M804.381,1234.778l-8.423-7.589c-0.806,1.472-1.157,2.866-1.05,4.179c0.105,1.311,0.608,2.375,1.509,3.189
		c1.853,1.67,4.126,2.167,6.818,1.491l-3.727,4.134c-4.997,1.743-9.166,1.114-12.493-1.886c-2.835-2.554-4.05-5.724-3.638-9.51
		c0.402-3.787,2.396-7.664,5.972-11.635c1.978-2.197,4.239-3.877,6.785-5.05c2.546-1.17,4.832-1.619,6.855-1.346
		c2.026,0.273,3.842,1.135,5.449,2.581c0.979,0.884,1.723,2.009,2.235,3.386c0.517,1.37,0.723,2.933,0.63,4.681
		c-0.098,1.748-0.595,3.578-1.489,5.492c-0.896,1.913-1.737,3.379-2.526,4.396C806.502,1232.31,805.536,1233.473,804.381,1234.778z
		 M799.193,1222.614l3.859,3.476c0.997-1.186,1.615-2.278,1.856-3.279c0.238-1.002,0.098-1.738-0.425-2.207
		c-0.55-0.495-1.298-0.581-2.252-0.26c-0.954,0.327-1.888,0.995-2.807,2.015L799.193,1222.614z"/>
	<path fill="#E4F5FD" d="M806.425,1238.69c-0.312,1.623-0.296,3.114,0.042,4.473c0.344,1.358,0.912,2.343,1.705,2.956
		c1.143,0.876,2.185,0.7,3.129-0.527c0.372-0.487,0.578-1.013,0.608-1.572c0.035-0.564-0.121-1.143-0.462-1.737l-1.273-2.408
		c-0.912-1.676-1.238-3.443-0.979-5.307c0.254-1.863,1.083-3.701,2.474-5.515c1.851-2.413,4.043-3.696,6.582-3.854
		c2.537-0.158,5.186,0.826,7.948,2.945c2.687,2.064,4.578,4.656,5.666,7.775l-7.044,4.796c0.022-2.888-0.6-4.816-1.871-5.791
		c-0.444-0.342-0.909-0.487-1.399-0.427c-0.49,0.058-0.904,0.312-1.248,0.759c-0.492,0.638-0.683,1.295-0.583,1.974
		c0.101,0.673,0.527,1.604,1.286,2.782c1.632,2.516,2.235,4.731,1.801,6.637c-0.435,1.906-1.258,3.654-2.481,5.244
		c-1.936,2.523-4.188,3.984-6.755,4.384c-2.569,0.399-5.05-0.318-7.451-2.162c-1.323-1.017-2.634-2.418-3.937-4.204
		c-1.296-1.782-2.351-3.671-3.149-5.66L806.425,1238.69z"/>
	<path fill="#E4F5FD" d="M845.553,1242.596l3.916,2.587l-4.882,7.39l-3.915-2.586l-2.343,3.543c-1.19,1.803-1.954,3.148-2.285,4.036
		c-0.332,0.886-0.088,1.602,0.736,2.144c0.833,0.55,1.969,0.396,3.405-0.469l-6.934,10.494c-2.348,0.429-4.653-0.101-6.91-1.595
		c-1.058-0.696-1.896-1.673-2.519-2.932c-0.628-1.25-0.95-2.701-0.97-4.349c-0.017-1.645,0.279-3.191,0.889-4.641
		c0.61-1.454,2.029-3.867,4.259-7.237l3.385-5.127l-3.696-2.441l22.892-6.429L845.553,1242.596z"/>
	<path fill="#E4F5FD" d="M835.539,1273.687l15.868-27.432c0.735,1.782,2.031,3.214,3.885,4.286c1.979,1.143,3.895,1.571,5.748,1.283
		l-15.871,27.435L835.539,1273.687z M862.772,1242.35c0.761,0.439,1.193,1.195,1.293,2.268c0.1,1.074-0.168,2.159-0.803,3.255
		c-0.659,1.14-1.482,1.95-2.466,2.426c-0.989,0.477-1.868,0.486-2.642,0.04c-0.715-0.414-1.112-1.17-1.188-2.271
		c-0.073-1.1,0.213-2.21,0.866-3.334c0.618-1.07,1.414-1.834,2.396-2.304C861.208,1241.961,862.057,1241.936,862.772,1242.35z"/>
	<path fill="#E4F5FD" d="M874.076,1257.742c3.016,1.475,4.816,4.082,5.403,7.813c0.593,3.734-0.193,7.803-2.35,12.207
		c-2.18,4.453-4.892,7.511-8.131,9.174c-3.242,1.66-6.529,1.675-9.859,0.045c-3.046-1.494-4.847-4.103-5.399-7.83
		c-0.555-3.724,0.281-7.859,2.508-12.407c2.049-4.184,4.739-7.119,8.069-8.802C867.649,1256.254,870.904,1256.187,874.076,1257.742z
		 M865.141,1275.384c0.618,0.302,1.275,0.262,1.986-0.128c0.708-0.387,1.286-1.037,1.735-1.951c0.495-1.012,0.703-1.919,0.625-2.72
		c-0.075-0.802-0.432-1.355-1.062-1.665c-0.663-0.326-1.349-0.289-2.052,0.111c-0.706,0.396-1.298,1.089-1.775,2.065
		c-0.442,0.902-0.61,1.767-0.507,2.6C864.188,1274.528,864.54,1275.09,865.141,1275.384z"/>
	<path fill="#E4F5FD" d="M885.787,1264.225l10.401,3.952l-1.396,3.674c2.684-1.971,5.253-2.488,7.699-1.56
		c1.366,0.518,2.446,1.323,3.245,2.416c0.798,1.095,1.23,2.36,1.306,3.797s-0.07,2.902-0.437,4.39
		c-0.372,1.486-1.198,3.93-2.491,7.332l-5.6,14.738l-9.809-3.729l5.213-13.727c1.23-3.239,1.894-5.299,1.984-6.188
		c0.09-0.884-0.307-1.497-1.193-1.833c-0.558-0.214-1.288-0.105-2.182,0.326l-7.594,19.989l-10.404-3.95L885.787,1264.225z"/>
	<path fill="#E4F5FD" d="M913.888,1307.399l0.638-2.285c-0.874,0.574-1.844,0.956-2.918,1.143c-1.075,0.186-2.026,0.16-2.853-0.071
		c-1.662-0.465-2.815-1.582-3.46-3.36c-0.646-1.774-0.638-3.849,0.025-6.217c0.756-2.712,2.019-4.677,3.792-5.896
		c1.77-1.223,3.784-1.52,6.037-0.895c0.979,0.277,2.024,0.824,3.129,1.643c0.753-2.966-0.166-4.812-2.755-5.531
		c-2.152-0.601-4.439-0.38-6.863,0.657l2.562-9.193c3.47-1.643,7.262-1.888,11.375-0.743c2.099,0.585,3.769,1.454,5.01,2.602
		c1.243,1.15,2.049,2.562,2.433,4.236c0.382,1.676,0.482,3.308,0.307,4.89s-0.698,3.925-1.563,7.025l-4.178,14.981L913.888,1307.399
		z M915.771,1300.642l1.19-4.267c-0.517-0.489-1.044-0.812-1.567-0.957c-0.658-0.186-1.266-0.093-1.813,0.273
		c-0.552,0.37-0.931,0.925-1.137,1.67c-0.244,0.879-0.241,1.663,0.018,2.344c0.256,0.685,0.716,1.117,1.376,1.3
		C914.565,1301.209,915.208,1301.088,915.771,1300.642z"/>
	<path fill="#E4F5FD" d="M936.985,1272.063l10.944,2.005l-1.705,9.313c1.6-0.545,3.033-0.705,4.294-0.475
		c3.026,0.555,5.266,2.491,6.723,5.815c1.456,3.32,1.763,7.283,0.919,11.884c-0.507,2.782-1.437,5.268-2.787,7.463
		c-1.346,2.189-2.848,3.776-4.5,4.751c-1.652,0.975-3.239,1.451-4.753,1.435c-1.515-0.019-4.003-0.345-7.461-0.978l-8.925-1.632
		L936.985,1272.063z M944.076,1295.104l-1.316,7.184l0.206,0.041c1.454,0.264,2.514,0.158,3.185-0.316
		c0.668-0.478,1.14-1.469,1.414-2.974c0.219-1.19,0.178-2.172-0.118-2.943c-0.299-0.769-0.801-1.218-1.509-1.348
		C945.385,1294.646,944.765,1294.765,944.076,1295.104z"/>
	<path fill="#E4F5FD" d="M974.461,1277.83l-4.455,39.987l-11.059-1.23l4.455-39.99L974.461,1277.83z"/>
	<path fill="#E4F5FD" d="M997.956,1305.568l-11.328-0.502c0.314,1.651,0.929,2.948,1.846,3.896c0.919,0.944,1.984,1.444,3.194,1.497
		c2.494,0.11,4.565-0.95,6.213-3.185l-0.247,5.56c-2.752,4.525-6.368,6.689-10.843,6.489c-3.812-0.166-6.765-1.843-8.859-5.022
		c-2.095-3.179-3.024-7.438-2.788-12.779c0.13-2.948,0.806-5.685,2.027-8.209c1.217-2.525,2.697-4.324,4.432-5.398
		c1.738-1.075,3.687-1.567,5.846-1.472c1.318,0.058,2.612,0.452,3.882,1.186c1.271,0.732,2.423,1.805,3.46,3.214
		c1.038,1.411,1.818,3.139,2.343,5.186c0.525,2.046,0.809,3.714,0.849,4.999C998.021,1302.313,998.014,1303.825,997.956,1305.568z
		 M986.216,1299.479l5.186,0.229c0.018-1.545-0.201-2.782-0.653-3.712c-0.452-0.924-1.027-1.403-1.73-1.434
		c-0.738-0.032-1.371,0.379-1.903,1.236c-0.53,0.855-0.826,1.971-0.886,3.34L986.216,1299.479z"/>
	<path fill="#E4F5FD" d="M1014.475,1318.907l-12.1,0.316L1001.32,1279l12.1-0.316L1014.475,1318.907z"/>
	<path fill="#E4F5FD" d="M1017.071,1287.257l11.063-1.146l0.407,3.907c1.512-2.963,3.57-4.582,6.177-4.851
		c1.451-0.151,2.778,0.084,3.983,0.703c1.202,0.617,2.159,1.552,2.872,2.802c0.714,1.253,1.241,2.624,1.58,4.118
		s0.698,4.051,1.069,7.67l1.62,15.684l-10.438,1.08l-1.51-14.609c-0.354-3.445-0.69-5.586-1.007-6.416
		c-0.313-0.836-0.947-1.203-1.889-1.104c-0.595,0.063-1.195,0.483-1.806,1.272l2.197,21.27l-11.066,1.145L1017.071,1287.257z"/>
	<path fill="#E4F5FD" d="M1057.556,1281.731l4.613-0.86l1.627,8.708l-4.613,0.862l0.781,4.173c0.395,2.125,0.786,3.621,1.162,4.49
		c0.377,0.868,1.05,1.21,2.015,1.029c0.984-0.181,1.692-1.084,2.125-2.702l2.31,12.365c-1.386,1.938-3.413,3.156-6.074,3.656
		c-1.243,0.23-2.528,0.115-3.85-0.352c-1.321-0.473-2.562-1.291-3.717-2.459c-1.154-1.167-2.019-2.488-2.592-3.955
		c-0.567-1.466-1.225-4.188-1.969-8.16l-1.13-6.04l-4.352,0.813l11.985-20.536L1057.556,1281.731z"/>
	<path fill="#E4F5FD" d="M1090.128,1292.053l-10.953,2.921c0.793,1.479,1.771,2.534,2.93,3.161c1.155,0.628,2.323,0.786,3.496,0.472
		c2.41-0.643,4.068-2.274,4.967-4.896l1.437,5.374c-1.271,5.143-4.067,8.29-8.397,9.442c-3.687,0.983-7.007,0.271-9.959-2.135
		c-2.951-2.405-5.115-6.189-6.491-11.353c-0.762-2.854-0.938-5.668-0.53-8.44s1.276-4.935,2.609-6.481
		c1.333-1.546,3.046-2.6,5.135-3.156c1.276-0.342,2.627-0.352,4.059-0.03c1.432,0.318,2.853,0.994,4.264,2.029
		c1.417,1.029,2.677,2.445,3.792,4.238c1.117,1.796,1.888,3.3,2.311,4.515C1089.217,1288.929,1089.663,1290.376,1090.128,1292.053z
		 M1077.103,1289.768l5.02-1.338c-0.449-1.479-1.029-2.597-1.737-3.343c-0.71-0.748-1.403-1.034-2.084-0.851
		c-0.711,0.19-1.193,0.772-1.444,1.75c-0.246,0.975-0.195,2.124,0.158,3.45L1077.103,1289.768z"/>
	<path fill="#E4F5FD" d="M1087.189,1274.309l10.449-3.827l1.352,3.687c0.738-3.243,2.335-5.318,4.796-6.222
		c1.371-0.503,2.712-0.598,4.033-0.297c1.315,0.302,2.476,0.975,3.476,2.014c0.999,1.035,1.843,2.24,2.541,3.602
		c0.698,1.366,1.67,3.757,2.923,7.172l5.424,14.806l-9.854,3.611l-5.052-13.792c-1.191-3.252-2.045-5.243-2.558-5.972
		c-0.507-0.73-1.21-0.934-2.101-0.605c-0.561,0.207-1.04,0.765-1.435,1.676l7.358,20.079l-10.447,3.827L1087.189,1274.309z"/>
	<path fill="#E4F5FD" d="M1125.033,1259.006l4.256-1.968l3.727,8.035l-4.258,1.974l1.782,3.853c0.914,1.959,1.657,3.314,2.235,4.064
		c0.58,0.747,1.315,0.915,2.21,0.5c0.908-0.422,1.37-1.467,1.391-3.144l5.289,11.411c-0.869,2.224-2.532,3.907-4.987,5.042
		c-1.146,0.532-2.418,0.736-3.814,0.608c-1.396-0.129-2.8-0.615-4.209-1.465c-1.414-0.846-2.573-1.911-3.488-3.192
		c-0.911-1.282-2.22-3.759-3.919-7.425l-2.585-5.574l-4.018,1.863l6.552-22.857L1125.033,1259.006z"/>
	<path fill="#E4F5FD" d="M1143.111,1266.769c1.396-0.751,2.993-0.661,4.796,0.266c1.808,0.927,3.272,2.443,4.405,4.55
		c1.13,2.107,1.582,4.156,1.357,6.152c-0.226,1.997-1.041,3.373-2.451,4.129c-1.407,0.756-3.013,0.681-4.808-0.229
		c-1.796-0.914-3.26-2.421-4.39-4.525c-1.123-2.094-1.577-4.148-1.366-6.167C1140.868,1268.925,1141.688,1267.531,1143.111,1266.769
		z"/>
	<path fill="#FEC20F" d="M1183.586,1261.595l-0.136,0.088l-8.144,5.711c-3.272,2.094-5.964,3.254-8.073,3.478
		s-4.345-0.178-6.703-1.205c-2.357-1.026-4.474-2.443-6.35-4.246c-1.874-1.809-3.536-3.843-4.988-6.107
		c-3.335-5.213-4.82-10.155-4.464-14.826c0.358-4.679,2.461-8.246,6.313-10.71c1.787-1.147,3.932-1.948,6.423-2.408
		c2.496-0.457,5.013-0.487,7.563-0.096l1.571,13.364c-2.885-0.2-5.186,0.249-6.9,1.347c-1.17,0.748-1.843,1.778-2.023,3.078
		c-0.176,1.307,0.174,2.647,1.055,4.022c1.858,2.904,3.904,3.637,6.138,2.206l0.246-0.156l-3.396-5.309l10.17-6.509
		L1183.586,1261.595z"/>
	<path fill="#FEC20F" d="M1196.234,1251.765l-1.464-1.869c-0.051,1.045-0.321,2.055-0.809,3.028
		c-0.492,0.975-1.074,1.728-1.753,2.255c-1.356,1.063-2.943,1.326-4.753,0.789c-1.813-0.535-3.479-1.768-4.995-3.707
		c-1.732-2.214-2.563-4.401-2.493-6.551c0.067-2.152,1.021-3.95,2.865-5.387c0.803-0.628,1.86-1.146,3.174-1.547
		c-1.938-2.368-3.968-2.723-6.087-1.064c-1.758,1.376-2.938,3.347-3.538,5.913l-5.882-7.519c0.736-3.765,2.785-6.963,6.152-9.598
		c1.715-1.341,3.403-2.172,5.064-2.488c1.663-0.316,3.278-0.131,4.853,0.558c1.577,0.688,2.948,1.572,4.118,2.654
		s2.747,2.891,4.729,5.424l9.585,12.253L1196.234,1251.765z M1191.916,1246.239l-2.729-3.49c-0.707,0.128-1.271,0.361-1.703,0.693
		c-0.538,0.424-0.824,0.967-0.854,1.624c-0.029,0.661,0.191,1.296,0.668,1.904c0.563,0.72,1.196,1.182,1.899,1.378
		c0.703,0.201,1.32,0.088,1.863-0.336C1191.652,1247.551,1191.938,1246.958,1191.916,1246.239z"/>
	<path fill="#FEC20F" d="M1187.317,1218.772l7.996-7.739l2.731,2.822c-0.628-3.279-0.01-5.826,1.858-7.634
		c2.25-2.175,5.188-2.477,8.816-0.901c-0.836-4.277-0.304-7.338,1.604-9.184c1.061-1.029,2.251-1.667,3.571-1.919
		c1.326-0.256,2.68-0.085,4.068,0.502c1.391,0.588,2.654,1.347,3.797,2.271c1.14,0.927,2.968,2.692,5.489,5.293l10.966,11.328
		l-7.521,7.28l-10.215-10.552c-2.411-2.486-3.993-3.963-4.76-4.422c-0.763-0.46-1.484-0.359-2.167,0.301
		c-0.479,0.465-0.69,1.171-0.632,2.117l14.876,15.363l-7.539,7.298l-10.221-10.553c-2.39-2.476-3.98-3.942-4.756-4.404
		c-0.773-0.457-1.496-0.364-2.167,0.284c-0.404,0.392-0.615,1.097-0.63,2.116l14.873,15.363l-7.993,7.74L1187.317,1218.772z"/>
	<path fill="#FEC20F" d="M1244.785,1182.986l-7.139,8.809c1.514,0.728,2.923,1.007,4.23,0.831c1.307-0.173,2.341-0.733,3.104-1.675
		c1.572-1.939,1.95-4.234,1.135-6.886l4.321,3.503c2.002,4.899,1.592,9.094-1.23,12.576c-2.4,2.963-5.504,4.34-9.307,4.134
		c-3.801-0.209-7.779-1.995-11.93-5.359c-2.295-1.858-4.096-4.028-5.396-6.512c-1.307-2.483-1.873-4.738-1.703-6.777
		c0.166-2.034,0.93-3.893,2.293-5.572c0.832-1.022,1.916-1.828,3.263-2.413c1.344-0.586,2.893-0.874,4.64-0.869
		c1.754,0,3.606,0.402,5.565,1.195c1.956,0.797,3.465,1.563,4.52,2.291C1242.212,1180.997,1243.422,1181.903,1244.785,1182.986z
		 M1232.91,1188.804l3.27-4.035c-1.235-0.934-2.36-1.494-3.375-1.68c-1.01-0.19-1.738-0.011-2.182,0.537
		c-0.465,0.572-0.511,1.326-0.139,2.265c0.374,0.935,1.093,1.834,2.16,2.697L1232.91,1188.804z"/>
	<path fill="#FEC20F" d="M1248.585,1180.745c1.635,0.229,3.121,0.136,4.46-0.278c1.341-0.411,2.295-1.029,2.862-1.858
		c0.813-1.185,0.585-2.22-0.688-3.093c-0.508-0.352-1.045-0.527-1.608-0.527c-0.562-0.006-1.132,0.18-1.707,0.552l-2.337,1.401
		c-1.626,1-3.373,1.416-5.246,1.26c-1.877-0.16-3.755-0.886-5.641-2.179c-2.506-1.723-3.902-3.847-4.196-6.371
		c-0.293-2.524,0.55-5.221,2.52-8.088c1.92-2.798,4.409-4.822,7.462-6.072l5.166,6.78c-2.883,0.13-4.778,0.854-5.683,2.174
		c-0.318,0.463-0.437,0.938-0.354,1.419c0.083,0.485,0.356,0.887,0.82,1.206c0.669,0.457,1.334,0.617,2.004,0.479
		c0.671-0.136,1.575-0.613,2.713-1.432c2.428-1.765,4.605-2.48,6.531-2.149s3.714,1.064,5.366,2.2
		c2.624,1.8,4.201,3.973,4.736,6.514c0.537,2.546-0.053,5.063-1.766,7.554c-0.946,1.376-2.275,2.762-3.988,4.153
		c-1.715,1.394-3.543,2.541-5.486,3.445L1248.585,1180.745z"/>
</g>
<g>
	<g>
		<path fill="none" d="M934.133,882.441c2.951-4.382,6.243-8.648,9.839-12.682C939.818,873.574,936.346,877.721,934.133,882.441z"/>
	</g>
	<g>
		<path fill="none" d="M1105.017,724.504c0-0.002,0-0.007-0.002-0.013C1104.729,723.452,1104.52,722.701,1105.017,724.504z"/>
	</g>
	<g>
		<path fill="none" d="M983.104,803.29c0.417,0.686,0.811,1.364,1.184,2.034c0.489-0.376,0.998-0.725,1.521-1.049
			C984.913,803.932,984.013,803.601,983.104,803.29z"/>
	</g>
	<g>
		<path fill="none" d="M978.99,843.714c0.247-0.354,0.479-0.718,0.72-1.078c-0.957,0.939-1.959,1.861-3.007,2.765
			c0.472-0.203,0.945-0.404,1.422-0.598C978.479,844.357,978.793,843.958,978.99,843.714z"/>
	</g>
	<g>
		<path fill="none" d="M1187.458,1063.075c1.585-4.724,2.803-9.693,3.265-14.668c0.567-6.355,0.563-12.709-0.015-19.062
			C1191.632,1040.693,1190.697,1052.142,1187.458,1063.075z"/>
	</g>
	<g>
		<g>
			<path fill="#FEC20F" d="M959.594,1195.9c-4.198-15.114-8.604-30.166-12.688-45.312c-0.664-2.463-5.881-18.863-6.101-26.626
				c-0.762-0.125-1.524-0.23-2.285-0.363c-10.995-1.896-21.123-4.684-30.547-8.541c9.268,18.359,18.118,37,25.229,56.296
				C938.154,1184.788,944.865,1193.176,959.594,1195.9z"/>
		</g>
		<g>
			<path fill="#FEC20F" d="M922.007,1186.835c-8.157-23.763-19.68-46.205-28.243-69.822c-0.673-1.861-3.175-7.009-4.502-11.654
				c-9.092-5.829-17.508-13.036-25.439-21.883c-2.177-2.431-6.322-2.709-11.282-2.367c4.898,7.91,10.297,19.333,10.882,20.679
				C877.617,1134.38,883.584,1175.425,922.007,1186.835z"/>
		</g>
		<g>
			<path fill="#FEC20F" d="M1108.844,1179.834c21.832-17.008,24.625-59.569,34.645-89.601c-4.551,1.587-9.302,2.898-14.252,3.902
				c-4.088,0.826-8.233,1.349-12.39,1.793c1.095,10.271-0.042,26.471-0.214,28.193
				C1114.785,1142.765,1112.113,1161.385,1108.844,1179.834z"/>
		</g>
		<g>
			<path fill="#FEC20F" d="M999.386,1201.156c-4.731-22.341-9.185-44.216-11.825-66.927c1.679-5.329,4.413-5.997,8.199-2.005
				c2.443,8.398,3.047,17.225,4.896,25.75c1.738,8.009,6.143,13.922,8.823,21.396c3.114,8.695,3.843,26.104,17.872,22.008
				c15.405-4.501,7.433-48.886,8.374-61.592c0.134-1.777,6.09-22.733,8.052-15.78c2.056,7.288,2.137,15.462,2.719,22.957
				c1.331,17.18,4.092,35.896,2.459,53.116c21.119-2.719,18.68-43.72,20.943-58.52c0.967-6.306,1.75-23.807,5.491-35.576
				c-13.184,5.61-26.854,10.118-40.766,13.513c-27.741,6.775-56.725,9.073-85.113,5.695c7.268,9.65,9.465,28.638,13.519,37.288
				C972.096,1181.823,974.634,1199.403,999.386,1201.156z"/>
		</g>
		<g>
			<path fill="#FEC20F" d="M1080.987,1192.698c14.522-4.959,16.079-37.566,17.922-49.532c1.859-12.043,1.62-32.526,7.255-46.13
				c-6.351,0.721-12.602,1.705-18.569,3.754C1091.095,1120.923,1081.935,1184.54,1080.987,1192.698z"/>
		</g>
		<g>
			<path fill="#D7A728" d="M1108.844,1179.834c3.27-18.449,5.941-37.069,7.789-55.712c0.172-1.723,1.309-17.923,0.214-28.193
				c-3.568,0.382-7.139,0.7-10.683,1.107c-5.635,13.604-5.396,34.087-7.255,46.13c-1.843,11.966-3.399,44.573-17.922,49.532
				c0.947-8.158,10.107-71.775,6.607-91.908c-1.623,0.558-3.225,1.19-4.802,1.922c-2.446,1.138-4.92,2.215-7.403,3.271
				c-3.741,11.77-4.524,29.271-5.491,35.576c-2.264,14.8,0.176,55.801-20.943,58.52c1.633-17.221-1.128-35.937-2.459-53.116
				c-0.582-7.495-0.663-15.669-2.719-22.957c-1.962-6.953-7.918,14.003-8.052,15.78c-0.941,12.706,7.031,57.091-8.374,61.592
				c-14.029,4.096-14.758-13.313-17.872-22.008c-2.68-7.474-7.085-13.387-8.823-21.396c-1.85-8.525-2.454-17.352-4.896-25.75
				c-3.786-3.992-6.521-3.324-8.199,2.005c2.64,22.711,7.094,44.586,11.825,66.927c-24.752-1.753-27.29-19.333-36.356-38.677
				c-4.054-8.65-6.251-27.638-13.519-37.288c-2.911-0.347-5.812-0.761-8.706-1.229c0.22,7.763,5.437,24.163,6.101,26.626
				c4.084,15.146,8.49,30.197,12.688,45.312c-14.729-2.725-21.44-11.112-26.393-24.546c-7.11-19.296-15.961-37.937-25.229-56.296
				c-6.56-2.688-12.779-5.898-18.71-9.7c1.327,4.646,3.829,9.793,4.502,11.654c8.563,23.617,20.086,46.06,28.243,69.822
				c-38.423-11.41-44.39-52.455-58.584-85.048c-0.585-1.346-5.984-12.769-10.882-20.679c-2.778,0.192-5.814,0.574-8.905,0.886
				c0.614,11.285,8.239,27.191,10.771,34.521c5.431,15.729,11.361,31.337,17.906,46.645c8.056,18.839,17.867,29.36,37.283,36.13
				c59.031,20.587,129.066,31.682,188.254,5.724c33.203-1.755,42.921-58.812,49.58-82.901c3.285-11.885,4.776-23.261,5.246-35.588
				c-2.961,1.364-6.021,2.606-9.188,3.709C1133.469,1120.265,1130.676,1162.826,1108.844,1179.834z"/>
		</g>
	</g>
	<g>
		<path fill="#9EDCF0" d="M1102.605,934.644l-2.771,8.809l-4.787,15.07c1.874-0.362,3.772-0.598,5.696-0.668
			c5.248-0.194,13.996,0.663,16.797,5.88c0.896,1.672,0.053,3.45-1.658,4.075c-2.568,0.939-5.313,0.021-7.978-0.103
			c-2.767-0.128-5.574-0.372-8.342-0.128c-0.186,0.018-0.366,0.048-0.551,0.068c-5.383,0.572-10.343,2.488-15.099,5.027
			c-1.926,1.03-3.782,2.14-5.565,3.342c-0.356,0.277-0.723,0.53-1.1,0.771c-2.587,1.828-5.027,3.852-7.313,6.117
			c-0.858,0.851-1.728,1.692-2.602,2.531c1.18,0.748,2.343,1.517,3.48,2.315c5.658,3.978,11.441,8.438,15.785,13.877
			c3.887,4.866,8.852,12.379,6.264,18.81c-0.046,0.119-0.092,0.239-0.146,0.357c-0.721,1.607-2.742,2.052-4.286,1.745
			c-3.191-0.633-4.995-3.338-7.282-5.351c-2.408-2.12-4.337-4.646-6.509-6.986c-2.228-2.396-4.586-4.644-7.089-6.723
			c-1.938-1.609-3.959-3.122-6.078-4.507c-0.396-0.259-0.806-0.5-1.205-0.754c-9.381-5.949-19.742-10.574-30.375-13.755
			c-10.996-3.295-22.563-5.372-34.059-5.608c-5.489-0.11-10.875,0.349-16.188,1.811c-5.009,1.381-10.754,2.476-15.341,4.957
			c-2.078,1.125-4.189-1.547-2.521-3.267c2.223-2.293,3.983-4.636,6.698-6.404c2.722-1.772,5.558-3.388,8.63-4.478
			c5.885-2.087,12.043-3.285,18.231-4.058c1.063-3.398,2.362-7.58,3.643-11.804c0.62-2.012,1.221-4.026,1.819-6.035l0.167-0.56
			c0.661-2.197,1.315-4.399,1.954-6.602c0.655-2.205,1.293-4.41,1.923-6.612c0.527-1.795,1.032-3.593,1.537-5.394l0.347-1.233
			c1.256-4.422,2.501-8.836,3.725-13.269l3.684-13.271c1.315-4.738,2.503-9.004,3.731-13.274l1.901-6.622
			c0.638-2.205,1.285-4.41,1.938-6.607c0.576-1.958,1.163-3.913,1.754-5.874l0.22-0.733c0.661-2.195,1.332-4.395,2.01-6.584
			c1.18-3.842,2.488-8.021,4.121-13.148c0.715-2.235,1.459-4.527,2.219-6.857c-10.905-17.292-29.83-34.434-48.93-41.726
			c-0.524,0.324,0.489,1.7,0,2.077c9.375,16.825,6.078,30.041-3.394,39.347c-0.241,0.359-0.473,0.724-0.72,1.078
			c-0.197,0.243-0.511,0.643-0.865,1.089c-0.477,0.194-0.95,0.395-1.422,0.598c-9.737,8.402-23.072,13.48-32.73,22.347
			c-3.596,4.033-9.839,10.286-9.839,14.693c-0.643,1.371-1.183,2.79-1.598,4.267c13.355,1.579,46.62,22.661,36.664,41.78
			c-0.604,1.16-11.475-13.678-13.338-15.622c-6.248-6.521-14.056-9.183-22.832-10.348c-15.291-2.031-31.331,1.875-44.617,9.527
			c-15.591,8.98-21.477,21.519-25.967,38.167c-3.172,11.765-4.913,13.223,7.586,17.06c5.652-0.746,9.356,1.012,11.113,5.273
			c-0.725,2.406-31.48,2.325-36.242,3.604c-9.562,2.566-18.314,9.183-24.411,16.83c-6.769,8.495-11.013,18.706-12.68,29.388
			c-4.132,26.443,13.871,53.747,42.056,55.551c-3.146-2.675-3.406-4.843-0.78-6.503c14.258,5.287,25.26,24.545,37.952,33.374
			c13.187,9.176,28.745,14.984,44.172,19.125c37.126,9.959,77.702,8.272,114.851-0.692c33.365-8.052,67.924-22.797,92.277-47.723
			c3.566-3.649,27.939-34.089,25.654-38.049c5.79,10.063,0.369,33.715-2.273,43.563c26.933-33.135,18.538-91.123-7.575-122.229
			c-0.942-1.12-32.229-30.626-46.155-40.556c-1.007,3.617-2.13,7.195-3.345,10.71
			C1103.987,930.851,1103.304,932.752,1102.605,934.644z M956.244,887.315c-25.006,0,21.864-32.21,23.701-33.097
			c-1.522,0.733-7.502,3.614,0.001-0.002c0,0,0.001,0,0.002,0c0,0,0,0-0.001,0c0.386-0.186,0.488-0.233,0.001,0
			C989.96,849.397,968.281,887.315,956.244,887.315z M824.539,1032.235c-8.3,13.771-7.884-16.671-7.714-17.128
			c5.012-13.47,26.394-33.62,42.525-28.798c-0.015-0.005-0.028-0.011-0.044-0.016c-0.079-0.022-0.166-0.05-0.257-0.075
			c-0.2-0.061-0.383-0.115-0.552-0.166l0,0c-0.19-0.058-0.383-0.113-0.565-0.168c-0.079-0.022-0.154-0.048-0.227-0.068
			c-0.046-0.012-0.095-0.03-0.136-0.04c-0.094-0.03-0.182-0.055-0.26-0.078c-0.028-0.008-0.049-0.016-0.073-0.023
			c-0.062-0.018-0.114-0.033-0.158-0.047c-0.161-0.048-0.188-0.056,0,0c0.044,0.015,0.097,0.03,0.158,0.047
			c0.024,0.007,0.045,0.015,0.073,0.023c0.078,0.022,0.166,0.047,0.26,0.078c0.041,0.01,0.089,0.028,0.136,0.04
			c0.073,0.02,0.148,0.045,0.227,0.068c0.162,0.048,0.355,0.105,0.565,0.168l0,0c0.168,0.05,0.352,0.105,0.552,0.166
			c0.091,0.025,0.178,0.053,0.257,0.075c0.104,0.033,0.192,0.058,0.266,0.081c0.077,0.023,0.131,0.038,0.165,0.05
			c0.009,0.002,0.021,0.005,0.028,0.007c0.015,0.002,0.021,0.005,0.021,0.005s-0.006-0.002-0.021-0.005
			c-0.006-0.002-0.019-0.005-0.028-0.007c-0.033-0.013-0.088-0.027-0.165-0.05c-0.06-0.018-0.13-0.041-0.222-0.065
			C863.897,987.667,831.1,1025.842,824.539,1032.235z M892.039,942.872c-2.307,2.7-6.334,14.55-10.569,14.55
			c-17.685,0,11.071-65.408,42.089-43.084c-0.608-0.439-1.643-1.183-1.781-1.283c0.089,0.065,0.581,0.419,1.787,1.286
			c0.683,0.492,0.475,0.341,0.002,0.002C932.065,920.473,896.493,937.659,892.039,942.872z M1015.127,1002.311
			c-10.808-1.615-18.407-7.029-31.695-6.015c-2.379,0.184-6.104,2.125-6.955-2.862c-2.457-14.407,76.29-5.045,83.072,24.02
			c-0.015-0.071-0.015-0.081,0.004,0.002c0.86,3.694,0.112,0.484,0,0C1063.267,1033.424,1019.125,1002.905,1015.127,1002.311z"/>
	</g>
	<g>
		<path fill="#E4F5FD" d="M923.566,914.343c0.473,0.338,0.681,0.49-0.002-0.002c-1.206-0.867-1.698-1.221-1.787-1.286
			c0.138,0.1,1.173,0.843,1.781,1.283c-31.018-22.324-59.774,43.084-42.089,43.084c4.235,0,8.263-11.85,10.569-14.55
			C896.493,937.659,932.065,920.473,923.566,914.343z"/>
	</g>
	<g>
		<path fill="none" stroke="#E4F5FD" stroke-width="0" stroke-linecap="round" stroke-linejoin="round" d="M859.572,986.375
			c0.077,0.023,0.131,0.038,0.165,0.05"/>
	</g>
	<g>
		<path fill="none" stroke="#E4F5FD" stroke-width="0" stroke-linecap="round" stroke-linejoin="round" d="M857.31,985.699
			c0.078,0.022,0.166,0.047,0.26,0.078"/>
	</g>
	<g>
		<path fill="none" stroke="#E4F5FD" stroke-width="0" stroke-linecap="round" stroke-linejoin="round" d="M859.764,986.432
			c0.015,0.002,0.021,0.005,0.021,0.005"/>
	</g>
	<g>
		<path fill="none" stroke="#E4F5FD" stroke-width="0" stroke-linecap="round" stroke-linejoin="round" d="M857.079,985.629
			c0.044,0.015,0.097,0.03,0.158,0.047"/>
	</g>
	<g>
		<path fill="none" stroke="#E4F5FD" stroke-width="0" stroke-linecap="round" stroke-linejoin="round" d="M857.237,985.676
			c0.024,0.007,0.045,0.015,0.073,0.023"/>
	</g>
	<g>
		<path fill="#E4F5FD" d="M859.306,986.294c0.016,0.005,0.029,0.01,0.044,0.016c0.092,0.024,0.162,0.047,0.222,0.065
			C859.498,986.352,859.409,986.327,859.306,986.294z"/>
	</g>
	<g>
		<path fill="#E4F5FD" d="M857.079,985.629C856.891,985.573,856.918,985.581,857.079,985.629L857.079,985.629z"/>
	</g>
	<g>
		<path fill="none" stroke="#E4F5FD" stroke-width="0" stroke-linecap="round" stroke-linejoin="round" d="M859.049,986.219
			c0.091,0.025,0.178,0.053,0.257,0.075"/>
	</g>
	<g>
		<path fill="none" stroke="#E4F5FD" stroke-width="0" stroke-linecap="round" stroke-linejoin="round" d="M858.497,986.053
			c0.168,0.05,0.352,0.105,0.552,0.166"/>
	</g>
	<g>
		<path fill="#E4F5FD" d="M816.825,1015.107c-0.169,0.457-0.585,30.899,7.714,17.128c6.561-6.394,39.358-44.568,34.811-45.926
			C843.218,981.488,821.837,1001.638,816.825,1015.107z"/>
	</g>
	<g>
		<path fill="none" stroke="#E4F5FD" stroke-width="0" stroke-linecap="round" stroke-linejoin="round" d="M859.764,986.432
			c-0.006-0.002-0.019-0.005-0.028-0.007"/>
	</g>
	<g>
		<path fill="none" stroke="#E4F5FD" stroke-width="0" stroke-linecap="round" stroke-linejoin="round" d="M857.569,985.777
			c0.041,0.01,0.089,0.028,0.136,0.04"/>
	</g>
	<g>
		<path fill="none" stroke="#E4F5FD" stroke-width="0" stroke-linecap="round" stroke-linejoin="round" d="M857.705,985.817
			c0.073,0.02,0.148,0.045,0.227,0.068"/>
	</g>
	<g>
		<path fill="#E4F5FD" d="M858.497,986.053c-0.209-0.063-0.403-0.121-0.565-0.168C858.114,985.94,858.307,985.995,858.497,986.053z"
			/>
	</g>
	<g>
		
			<line fill="none" stroke="#E4F5FD" stroke-width="0" stroke-linecap="round" stroke-linejoin="round" x1="858.497" y1="986.053" x2="858.497" y2="986.053"/>
	</g>
	<g>
		<path fill="#E4F5FD" d="M979.948,854.216C979.947,854.216,979.947,854.216,979.948,854.216c-7.506,3.616-1.525,0.736-0.003,0.002
			c-1.837,0.887-48.707,33.097-23.701,33.097C968.281,887.315,989.96,849.397,979.948,854.216z"/>
	</g>
	<g>
		<path fill="#E4F5FD" d="M979.947,854.216C979.948,854.216,979.948,854.216,979.947,854.216
			C980.436,853.982,980.333,854.03,979.947,854.216z"/>
	</g>
	<g>
		<path fill="#E4F5FD" d="M1059.553,1017.455c-0.019-0.083-0.019-0.073-0.004-0.002c-6.782-29.064-85.529-38.426-83.072-24.02
			c0.852,4.987,4.576,3.046,6.955,2.862c13.289-1.014,20.888,4.4,31.695,6.015
			C1019.125,1002.905,1063.267,1033.424,1059.553,1017.455C1059.665,1017.939,1060.413,1021.149,1059.553,1017.455z"/>
	</g>
	<g>
		<path fill="#00AEEF" d="M1203.545,999.174C1203.457,998.878,1203.465,998.902,1203.545,999.174L1203.545,999.174z"/>
	</g>
	<g>
		<path fill="#00AEEF" d="M1205.83,1006.943c0.002,0.002,0.002,0.005,0.005,0.005c0.15,0.524,0.294,1.004,0.43,1.467
			C1206.121,1007.931,1205.979,1007.438,1205.83,1006.943z"/>
	</g>
	<g>
		<path fill="#00AEEF" d="M1206.265,1008.415C1207.949,1014.143,1209.255,1018.57,1206.265,1008.415L1206.265,1008.415z"/>
	</g>
	<g>
		<path fill="#00AEEF" d="M1205.634,1006.271c0.063,0.216,0.126,0.43,0.191,0.655c0.002,0.005,0.005,0.008,0.005,0.013
			C1205.765,1006.715,1205.699,1006.491,1205.634,1006.271z"/>
	</g>
	<g>
		<path fill="#55C7DD" d="M1205.835,1006.948c-0.003-0.003-0.005-0.005-0.005-0.007c0-0.006-0.003-0.011-0.005-0.016
			c-8.006-27.184-26.482-52.633-48.958-68.142c-6.554-4.524-33.549-22.395-47.699-25.023c-0.369,1.494-0.767,2.983-1.178,4.467
			c13.927,9.929,43.436,40.159,44.377,41.278c26.113,31.107,36.286,88.372,9.354,121.507c2.643-9.849,8.063-33.501,2.273-43.563
			c2.285,3.96-22.088,34.399-25.654,38.049c-24.354,24.926-58.912,39.671-92.277,47.723c-37.148,8.965-77.724,10.651-114.851,0.692
			c-15.427-4.141-30.985-9.949-44.172-19.125c-12.692-8.829-23.693-28.087-37.952-33.374c-2.626,1.66-2.367,3.828,0.78,6.503
			c-28.185-1.804-46.188-29.107-42.056-55.551c1.667-10.682,5.911-20.893,12.68-29.388c6.097-7.646,14.85-14.263,24.411-16.83
			c4.762-1.278,35.518-1.198,36.242-3.604c-1.757-4.261-5.46-6.019-11.113-5.273c-12.5-3.837-10.758-5.294-7.586-17.06
			c4.49-16.649,10.376-29.187,25.967-38.167c13.286-7.651,29.326-11.558,44.617-9.527c8.775,1.165,16.583,3.827,22.832,10.348
			c1.863,1.944,12.734,16.782,13.338,15.622c9.956-19.12-23.309-40.201-36.664-41.78c0.416-1.477,0.955-2.896,1.598-4.267
			c2.213-4.721,5.685-8.867,9.839-12.682c9.658-8.867,22.994-15.956,32.73-24.358c1.048-0.903,2.051-1.826,3.007-2.765
			c9.472-9.306,13.953-20.488,4.578-37.313c-0.373-0.67-0.767-1.348-1.184-2.034c0.909,0.312,1.809,0.643,2.706,0.984
			c19.1,7.292,35.319,21.372,46.225,38.665c0.671-2.057,1.359-4.141,2.058-6.246c1.11-3.322,2.293-6.805,3.586-10.58
			c-15.647-13.206-59.687-46.846-63.071-28.441c-0.948,5.155,1.802,10.773,3.788,15.963c0.664,1.735,1.243,3.423,1.57,5.03
			c0.64,3.146,0.57,6.029-0.03,8.691c-2.244,9.954-11.976,16.81-20.491,22.538c-10.648,7.159-22.613,14.007-29.608,25.187
			c-2.26,3.468-3.812,7.207-4.654,11.223c-9.23,0.042-18.477,1.865-27.191,4.831c-31.374,10.668-49.558,38.664-43.309,72.2
			c-53.017-8.672-82.453,67.058-53.489,105.208c6.218,8.187,14.346,13.31,23.862,16.855c4.417,1.646,9.778,1.898,15.003,1.924
			c3.108,0.015,6.167-0.046,8.95,0.055c4.968,0.184,9.06,0.894,10.97,3.54c6.957,9.633,14.568,17.689,22.996,24.438
			c5.498,4.405,11.345,8.252,17.587,11.617c8.966,4.827,18.743,8.664,29.479,11.707c0.742,0.211,1.49,0.396,2.234,0.601
			c2.83,0.771,5.671,1.486,8.529,2.137c27.875,6.349,56.939,7.111,85.239,3.292c14.192-1.913,28.261-4.957,41.961-9.148
			c2.582-0.788,5.153-1.602,7.707-2.476c1.645-0.563,3.305-1.02,4.979-1.403c6.147-1.412,12.471-1.732,18.859-1.78
			c3.565-0.03,7.151,0.024,10.74,0.022c4.178-0.006,8.359-0.088,12.51-0.48c5.025-0.477,9.892-1.28,14.583-2.38
			c3.265-0.764,6.438-1.678,9.526-2.723C1194.826,1108.101,1221.12,1058.885,1205.835,1006.948z"/>
	</g>
	<g>
		<path fill="#00AEEF" d="M1205.634,1006.271c-0.352-1.193-0.655-2.223-0.914-3.097
			C1205.007,1004.141,1205.317,1005.2,1205.634,1006.271z"/>
	</g>
	<g>
		<path fill="none" stroke="#00AEEF" stroke-width="0" stroke-linecap="round" stroke-linejoin="round" d="M1204.052,1000.902
			c0.013,0.04,0.025,0.08,0.035,0.121"/>
	</g>
	<g>
		<path fill="#00AEEF" d="M1203.735,999.822c-0.083-0.279-0.148-0.502-0.19-0.648
			C1203.585,999.312,1203.65,999.528,1203.735,999.822z"/>
	</g>
	<g>
		<path fill="#00AEEF" d="M1204.052,1000.902c-0.128-0.439-0.233-0.796-0.316-1.08
			C1203.82,1000.121,1203.929,1000.482,1204.052,1000.902z"/>
	</g>
	<g>
		<path fill="none" stroke="#00AEEF" stroke-width="0" stroke-linecap="round" stroke-linejoin="round" d="M1204.087,1001.022
			c0.056,0.181,0.11,0.376,0.173,0.585"/>
	</g>
	<g>
		<path fill="#00AEEF" d="M1204.72,1003.174c-0.163-0.56-0.316-1.087-0.46-1.566
			C1204.393,1002.062,1204.549,1002.584,1204.72,1003.174z"/>
	</g>
	<g>
		<path fill="#ED1C24" d="M1118.155,814.64c1.903,1.437,3.641,2.943,5.16,4.478c0.861,0.862,1.624,1.761,2.258,2.526
			c0.743,0.962,1.392,1.826,1.924,2.767c0.213,0.334,0.396,0.696,0.572,1.045l0.366,0.766c0.166,0.376,0.339,0.768,0.468,1.18
			c0.389,1.155,0.585,2.172,0.592,3.102c0.01,0.125,0.008,0.276-0.01,0.427l-0.015,0.332c0,0.196-0.03,0.375-0.061,0.547
			l-0.076,0.49l-0.368,1.228l-1.23,3.528c-0.367,3.31-1.472,6.479-3.287,9.427l-1.763,5.055c-0.721,2.077-1.454,4.196-2.186,6.323
			c-0.923,3.445-1.862,6.88-2.722,10.298c-1.095,4.354-2.26,8.689-3.46,13.015c-0.764,5.746-1.582,11.486-2.285,17.237
			c-0.229,1.886-0.522,3.772-0.844,5.653l0.098-0.326c0.896-2.938,1.771-5.884,2.646-8.83c0.435-1.456,0.866-2.915,1.301-4.369
			c1.16-3.875,2.394-8.076,3.88-13.214c1.128-3.897,2.32-8.108,3.752-13.251c0.957-3.418,1.883-6.838,2.813-10.263l0.823-3.031
			l4.761-17.964l0.051-0.485c0.035-0.324,0.073-0.688,0.061-0.986l-0.019-0.497c0-0.156-0.005-0.307-0.026-0.445
			c-0.101-1.143-0.413-2.308-0.955-3.588c-0.181-0.467-0.401-0.884-0.64-1.326l-0.374-0.651c-0.241-0.404-0.467-0.783-0.73-1.137
			c-0.676-1.015-1.462-1.929-2.208-2.78l-0.407-0.425c-0.266-0.281-0.527-0.563-0.803-0.831l-0.377-0.359
			c-0.292-0.281-0.583-0.563-0.895-0.834c-1.614-1.458-3.41-2.85-5.484-4.261c-1.783-1.221-3.712-2.396-5.896-3.596l-0.444-0.243
			c-0.354-0.194-0.706-0.387-1.064-0.565l-1.942-0.987c-0.903-0.435-1.808-0.872-2.711-1.284c-0.236-0.105-0.478-0.206-0.717-0.312
			c0.234,0.111,0.465,0.219,0.701,0.332C1110.685,809.618,1114.645,812.003,1118.155,814.64z"/>
	</g>
	<g>
		<path fill="#ED1C24" d="M1098.674,944.518c-1.994,4.603-4.204,9.113-6.75,13.479c-0.296,0.507-0.607,1.007-0.91,1.509
			c1.04-0.306,2.095-0.577,3.154-0.806L1098.674,944.518z"/>
	</g>
	<g>
		<path fill="#F1697B" d="M1113.823,814.233c0.417,0.11,0.832,0.253,1.243,0.412c0.336-0.108,0.718-0.053,1.042,0.273
			c0.11,0.111,0.222,0.219,0.332,0.329c1.697,0.867,3.304,2.092,4.746,3.538c0.381,0.266,0.76,0.54,1.115,0.847
			c0.228,0.196,0.308,0.452,0.301,0.708c0.101,0.12,0.193,0.249,0.291,0.372c0.148-0.065,0.324-0.078,0.484-0.01
			c0.231,0.1,0.45,0.221,0.668,0.344c-0.396-0.452-0.823-0.921-1.283-1.379c-1.494-1.509-3.201-2.991-5.075-4.404
			c-3.471-2.606-7.387-4.965-11.641-7.009c-1.417-0.681-2.773-1.293-4.114-1.858l-0.657,4.94c3.065,1.311,5.946,2.745,8.573,4.274
			C1110.652,814.457,1112.065,813.766,1113.823,814.233z"/>
	</g>
	<g>
		<path fill="#F1697B" d="M1034.654,971.295c6.057,1.763,12.116,3.88,17.979,6.431c2.373-8.086,4.967-16.105,7.659-24.091
			c3.893-18.367,8.317-36.61,13.294-54.728c3.722-13.545,7.589-27.048,11.885-40.422c1.778-5.532,3.531-11.074,5.465-16.541
			c0.035-0.312,0.081-0.621,0.113-0.932c0.051-0.459,0.091-0.919,0.13-1.381c-2.754-0.582-5.56-1.301-8.382-2.172
			c-9.798-3.019-18.55-7.368-24.645-12.245c-6.192-4.952-8.922-9.889-7.684-13.897c1.432-4.643,7.965-7.305,17.924-7.305
			c4.982,0,10.467,0.673,16.137,1.943l1.673-4.598c-1.908-0.424-3.93-0.806-6.177-1.152c-4.706-0.713-9.276-0.975-13.566-0.776
			c-2.351,0.113-4.595,0.374-6.682,0.781c-1.015,0.19-2.069,0.454-3.228,0.801c-0.943,0.304-2.041,0.673-3.033,1.153
			c-0.344,0.148-0.653,0.316-0.959,0.484c-0.161,0.088-0.319,0.173-0.48,0.259c-0.093,0.063-0.223,0.146-0.353,0.229
			c-0.327,0.204-0.634,0.397-0.912,0.623c-0.924,0.693-1.604,1.369-2.097,2.077c-0.093,0.113-0.144,0.193-0.193,0.284l-0.204,0.324
			c-0.1,0.15-0.165,0.301-0.23,0.449l-0.542,1.517l-4.485,16.629c-1.125,4.128-2.331,8.473-3.685,13.284
			c-1.341,4.723-2.599,9.055-3.839,13.236c-1.422,4.779-2.728,9.093-3.99,13.191l-0.259,0.836c-0.593,1.911-1.185,3.827-1.79,5.738
			c-0.686,2.19-1.379,4.38-2.087,6.569c-0.693,2.187-1.404,4.37-2.12,6.551l-2.149,6.542c-1.441,4.364-2.915,8.719-4.39,13.073
			l-4.429,13.045c-1.331,3.904-2.643,7.822-3.951,11.734l-0.441,1.324c-0.733,2.182-1.457,4.354-2.172,6.534
			c-0.716,2.179-1.434,4.367-2.135,6.546c-0.708,2.19-1.408,4.37-2.102,6.564c-0.693,2.18-1.387,4.37-2.063,6.564
			c-0.992,3.169-2.027,6.541-3.306,10.739C1010.403,966.009,1022.892,967.872,1034.654,971.295z"/>
	</g>
	<g>
		<path fill="#F1697B" d="M1122.846,848.689c-0.005,0.01-0.005,0.017-0.01,0.028l0.013-0.033
			C1122.846,848.684,1122.846,848.687,1122.846,848.689z"/>
	</g>
	<g>
		<path fill="#ED1C24" d="M1000.716,956.142c0.677-2.197,1.371-4.387,2.066-6.57c0.691-2.195,1.395-4.376,2.103-6.566
			c0.699-2.179,1.418-4.369,2.134-6.551c0.718-2.183,1.441-4.354,2.175-6.537l0.442-1.323c1.309-3.915,2.618-7.832,3.95-11.739
			l4.432-13.046c1.472-4.352,2.946-8.704,4.385-13.065l2.149-6.542c0.715-2.18,1.423-4.359,2.116-6.546
			c0.708-2.19,1.401-4.377,2.087-6.564c0.605-1.911,1.198-3.824,1.79-5.735l0.257-0.836c1.266-4.093,2.569-8.407,3.988-13.181
			c1.243-4.179,2.498-8.507,3.836-13.229c1.356-4.809,2.563-9.151,3.685-13.274l4.543-16.834c0.02-0.081,0.039-0.153,0.055-0.211
			l0.227-0.688l0.24-0.522c0.081-0.184,0.166-0.369,0.292-0.558l0.188-0.301c0.066-0.118,0.142-0.238,0.244-0.359
			c0.518-0.746,1.255-1.482,2.235-2.215c0.304-0.246,0.645-0.461,0.974-0.67c0.126-0.077,0.254-0.158,0.38-0.241
			c0.19-0.1,0.344-0.183,0.497-0.269c0.321-0.176,0.655-0.356,1.01-0.51c1.02-0.494,2.151-0.874,3.126-1.19
			c1.19-0.356,2.271-0.623,3.31-0.821c2.122-0.412,4.407-0.678,6.793-0.793c3.859-0.178,7.942,0.03,12.144,0.58
			c-0.615-0.096-1.228-0.201-1.838-0.289l-1.716-0.208c-0.338-0.043-0.683-0.076-1.026-0.108l-0.686-0.071
			c-2.415-0.228-4.607-0.341-6.7-0.341h-0.19c-2.501,0-4.764,0.146-6.918,0.442c-0.404,0.048-0.804,0.116-1.206,0.183l-0.521,0.088
			c-0.399,0.071-0.807,0.161-1.214,0.251l-0.497,0.11c-1.135,0.294-2.257,0.598-3.345,1.04c-0.432,0.148-0.828,0.332-1.251,0.525
			l-0.698,0.342c-0.421,0.223-0.853,0.452-1.25,0.723c-1.175,0.754-2.081,1.54-2.782,2.406c-0.128,0.13-0.206,0.246-0.286,0.362
			l-0.291,0.407c-0.151,0.19-0.267,0.399-0.387,0.618l-0.347,0.623l-0.361,0.889c-0.025,0.065-0.048,0.131-0.07,0.196
			c-0.021,0.07-0.046,0.138-0.075,0.213l-5.65,16.265c-1.633,4.744-3.079,9.01-4.43,13.043c-1.487,4.485-2.928,8.892-4.274,13.093
			c-1.63,5.125-2.938,9.301-4.118,13.143c-0.678,2.19-1.347,4.385-2.009,6.58l-0.219,0.733c-0.59,1.956-1.178,3.91-1.751,5.868
			c-0.654,2.197-1.3,4.399-1.938,6.602l-1.9,6.62c-1.226,4.266-2.416,8.533-3.729,13.269l-3.683,13.271
			c-1.224,4.433-2.472,8.85-3.725,13.274l-0.347,1.23c-0.508,1.803-1.012,3.604-1.539,5.399c-0.63,2.205-1.271,4.409-1.924,6.614
			c-0.64,2.203-1.294,4.41-1.957,6.607l-0.166,0.558c-0.599,2.014-1.199,4.03-1.821,6.042c-1.239,4.088-2.496,8.138-3.54,11.475
			c0.375-0.045,0.749-0.08,1.124-0.118C998.635,962.85,999.7,959.391,1000.716,956.142z"/>
	</g>
	<g>
		<path fill="#EF4136" d="M1101.933,806.396c1.341,0.565,2.697,1.178,4.114,1.858c4.254,2.044,8.17,4.402,11.641,7.009
			c1.874,1.414,3.581,2.896,5.075,4.404c0.46,0.458,0.887,0.927,1.283,1.379c-0.218-0.123-0.437-0.244-0.668-0.344
			c-0.16-0.068-0.336-0.056-0.484,0.01c-0.098-0.123-0.19-0.251-0.291-0.372c0.007-0.256-0.073-0.512-0.301-0.708
			c-0.355-0.307-0.734-0.581-1.115-0.847c-1.442-1.446-3.049-2.671-4.746-3.538c-0.11-0.11-0.222-0.218-0.332-0.329
			c-0.324-0.326-0.706-0.381-1.042-0.273c-0.411-0.159-0.826-0.301-1.243-0.412c-1.758-0.467-3.171,0.223-3.975,1.376
			c-2.627-1.529-5.508-2.963-8.573-4.274l-0.105,0.801l-0.711,5.336l-0.108,0.807l-0.401,3.036l-6.841-0.439l-13.676-0.876
			l2.785-7.672l0.27-0.738l1.777-4.895l0.266-0.738c-5.67-1.27-11.154-1.943-16.137-1.943c-9.959,0-16.492,2.662-17.924,7.305
			c-1.238,4.008,1.491,8.945,7.684,13.897c6.095,4.877,14.847,9.226,24.645,12.245c2.822,0.871,5.628,1.59,8.382,2.172
			c-0.039,0.462-0.079,0.922-0.13,1.381c-0.032,0.311-0.078,0.62-0.113,0.932c-1.934,5.467-3.687,11.009-5.465,16.541
			c-4.296,13.375-8.163,26.877-11.885,40.422c-4.977,18.118-9.401,36.361-13.294,54.728c-2.692,7.985-5.286,16.005-7.659,24.091
			c2.772,1.206,5.502,2.499,8.161,3.912c5.269-7.576,12.284-14.027,20.526-18.208c3.106-1.579,6.348-2.937,9.692-3.924
			c0.303-0.502,0.614-1.001,0.91-1.509c2.546-4.367,4.756-8.877,6.75-13.479l-4.506,14.183c0.292-0.063,0.588-0.12,0.879-0.178
			l4.787-15.07l2.771-8.809c0.698-1.891,1.382-3.792,2.04-5.706c1.215-3.516,2.338-7.094,3.345-10.71
			c0.411-1.483,0.809-2.973,1.178-4.467c0.122-0.508,0.235-1.018,0.354-1.524c0.438-1.432,0.879-2.863,1.311-4.297l1.201-3.978
			c0.894-2.94,1.772-5.886,2.646-8.834c0.432-1.457,0.866-2.913,1.301-4.37c1.16-3.877,2.396-8.076,3.882-13.219
			c1.128-3.9,2.32-8.111,3.754-13.259c0.957-3.418,1.887-6.84,2.816-10.268l5.285-19.675l0.314-1.401l0.055-0.525
			c0.035-0.333,0.08-0.745,0.065-1.1l-0.016-0.48c0-0.181-0.01-0.374-0.035-0.525c-0.104-1.2-0.437-2.443-1.004-3.789
			c-0.193-0.497-0.439-0.957-0.678-1.401l-0.393-0.683c-0.238-0.399-0.486-0.814-0.761-1.186c-0.692-1.037-1.494-1.974-2.272-2.857
			l-0.411-0.435c-0.274-0.287-0.543-0.575-0.832-0.854l-0.373-0.359c-0.302-0.291-0.604-0.58-0.917-0.856
			c-1.641-1.479-3.461-2.893-5.563-4.324c-1.808-1.233-3.757-2.421-5.964-3.634l-0.444-0.241c-0.362-0.201-0.724-0.399-1.087-0.58
			l-1.553-0.798l-0.404-0.196c-0.903-0.435-1.815-0.874-2.727-1.289c-1.484-0.673-3.021-1.313-4.586-1.931l-0.105,0.796
			L1101.933,806.396z M1122.846,848.689c0-0.002,0-0.005,0.003-0.005l-0.013,0.033
			C1122.841,848.706,1122.841,848.699,1122.846,848.689z M1106.398,807.533c0.903,0.412,1.808,0.849,2.711,1.284l1.942,0.987
			c0.358,0.178,0.71,0.371,1.064,0.565l0.444,0.243c2.184,1.201,4.112,2.375,5.896,3.596c2.074,1.411,3.87,2.803,5.484,4.261
			c0.312,0.271,0.603,0.553,0.895,0.834l0.377,0.359c0.275,0.269,0.537,0.55,0.803,0.831l0.407,0.425
			c0.746,0.851,1.532,1.765,2.208,2.78c0.264,0.354,0.489,0.733,0.73,1.137l0.374,0.651c0.238,0.442,0.459,0.858,0.64,1.326
			c0.542,1.281,0.854,2.446,0.955,3.588c0.021,0.138,0.026,0.289,0.026,0.445l0.019,0.497c0.013,0.299-0.025,0.663-0.061,0.986
			l-0.051,0.485l-4.761,17.964l-0.823,3.031c-0.93,3.425-1.855,6.845-2.813,10.263c-1.432,5.143-2.624,9.354-3.752,13.251
			c-1.486,5.138-2.72,9.339-3.88,13.214c-0.435,1.454-0.866,2.913-1.301,4.369c-0.876,2.946-1.75,5.892-2.646,8.83l-0.098,0.326
			c0.321-1.881,0.615-3.767,0.844-5.653c0.703-5.75,1.521-11.491,2.285-17.237c1.2-4.326,2.365-8.661,3.46-13.015
			c0.859-3.417,1.799-6.853,2.722-10.298c0.731-2.127,1.465-4.247,2.186-6.323l1.763-5.055c1.815-2.948,2.92-6.117,3.287-9.427
			l1.23-3.528l0.368-1.228l0.076-0.49c0.03-0.173,0.061-0.352,0.061-0.547l0.015-0.332c0.018-0.15,0.02-0.301,0.01-0.427
			c-0.007-0.929-0.203-1.946-0.592-3.102c-0.129-0.412-0.302-0.803-0.468-1.18l-0.366-0.766c-0.176-0.349-0.359-0.71-0.572-1.045
			c-0.532-0.941-1.181-1.805-1.924-2.767c-0.634-0.766-1.396-1.665-2.258-2.526c-1.52-1.534-3.257-3.041-5.16-4.478
			c-3.511-2.637-7.471-5.022-11.772-7.086c-0.236-0.113-0.467-0.221-0.701-0.332
			C1105.921,807.328,1106.162,807.428,1106.398,807.533z"/>
	</g>
	<g>
		<path fill="#EF4136" d="M1032.034,842.938c-0.76,2.33-1.504,4.623-2.219,6.857c-1.633,5.128-2.941,9.307-4.121,13.148
			c-0.678,2.19-1.349,4.39-2.01,6.584l-0.22,0.733c-0.591,1.961-1.178,3.915-1.754,5.874c-0.652,2.197-1.3,4.402-1.938,6.607
			l-1.901,6.622c-1.229,4.27-2.416,8.536-3.731,13.274l-3.684,13.271c-1.224,4.433-2.469,8.847-3.725,13.269l-0.347,1.233
			c-0.505,1.801-1.01,3.599-1.537,5.394c-0.63,2.203-1.268,4.408-1.923,6.612c-0.639,2.202-1.293,4.404-1.954,6.602l-0.167,0.56
			c-0.599,2.009-1.199,4.023-1.819,6.035c-1.28,4.224-2.58,8.406-3.643,11.804c0.165-0.021,0.328-0.046,0.491-0.063
			c0.119-0.015,0.239-0.025,0.356-0.038c1.043-3.337,2.3-7.387,3.54-11.475c0.622-2.011,1.222-4.027,1.821-6.042l0.166-0.558
			c0.663-2.197,1.317-4.404,1.957-6.607c0.653-2.205,1.294-4.41,1.924-6.614c0.527-1.795,1.031-3.596,1.539-5.399l0.347-1.23
			c1.253-4.425,2.501-8.842,3.725-13.274l3.683-13.271c1.313-4.735,2.504-9.002,3.729-13.269l1.9-6.62
			c0.639-2.203,1.284-4.405,1.938-6.602c0.573-1.958,1.161-3.912,1.751-5.868l0.219-0.733c0.662-2.195,1.331-4.39,2.009-6.58
			c1.181-3.842,2.488-8.018,4.118-13.143c1.347-4.201,2.787-8.608,4.274-13.093c1.351-4.033,2.797-8.3,4.43-13.043l5.65-16.265
			c0.029-0.075,0.055-0.143,0.075-0.213c0.022-0.065,0.045-0.131,0.07-0.196l0.361-0.889l0.347-0.623
			c0.12-0.219,0.235-0.427,0.387-0.618l0.291-0.407c0.08-0.116,0.158-0.231,0.286-0.362c0.701-0.866,1.607-1.652,2.782-2.406
			c0.397-0.271,0.829-0.5,1.25-0.723l0.698-0.342c0.423-0.193,0.819-0.376,1.251-0.525c1.088-0.442,2.21-0.746,3.345-1.04
			l0.497-0.11c0.407-0.09,0.814-0.181,1.214-0.251l0.521-0.088c0.402-0.067,0.802-0.135,1.206-0.183
			c2.154-0.296,4.417-0.442,6.918-0.442h0.19c2.093,0,4.285,0.113,6.7,0.341l0.686,0.071c0.344,0.032,0.688,0.065,1.026,0.108
			l1.716,0.208c0.61,0.088,1.223,0.193,1.838,0.289c-4.201-0.55-8.284-0.758-12.144-0.58c-2.386,0.116-4.671,0.382-6.793,0.793
			c-1.039,0.199-2.119,0.465-3.31,0.821c-0.975,0.316-2.106,0.696-3.126,1.19c-0.354,0.154-0.688,0.334-1.01,0.51
			c-0.153,0.085-0.307,0.168-0.497,0.269c-0.126,0.083-0.254,0.164-0.38,0.241c-0.329,0.209-0.67,0.425-0.974,0.67
			c-0.98,0.733-1.718,1.469-2.235,2.215c-0.103,0.121-0.178,0.241-0.244,0.359l-0.188,0.301c-0.126,0.188-0.211,0.374-0.292,0.558
			l-0.24,0.522l-0.227,0.688c-0.016,0.058-0.035,0.13-0.055,0.211l-4.543,16.834c-1.122,4.124-2.328,8.465-3.685,13.274
			c-1.338,4.721-2.593,9.05-3.836,13.229c-1.419,4.774-2.723,9.088-3.988,13.181l-0.257,0.836c-0.592,1.911-1.185,3.824-1.79,5.735
			c-0.686,2.187-1.379,4.375-2.087,6.564c-0.693,2.187-1.401,4.367-2.116,6.546l-2.149,6.542c-1.438,4.362-2.913,8.714-4.385,13.065
			l-4.432,13.046c-1.332,3.907-2.642,7.824-3.95,11.739l-0.442,1.323c-0.733,2.183-1.457,4.354-2.175,6.537
			c-0.716,2.182-1.435,4.372-2.134,6.551c-0.708,2.19-1.411,4.372-2.103,6.566c-0.695,2.183-1.39,4.373-2.066,6.57
			c-1.016,3.249-2.081,6.708-3.401,11.058c0.28-0.027,0.559-0.063,0.84-0.088c1.278-4.199,2.314-7.57,3.306-10.739
			c0.677-2.194,1.37-4.384,2.063-6.564c0.693-2.195,1.394-4.375,2.102-6.564c0.701-2.179,1.419-4.367,2.135-6.546
			c0.715-2.18,1.438-4.353,2.172-6.534l0.441-1.324c1.309-3.912,2.62-7.83,3.951-11.734l4.429-13.045
			c1.475-4.354,2.948-8.709,4.39-13.073l2.149-6.542c0.716-2.182,1.427-4.364,2.12-6.551c0.708-2.189,1.401-4.379,2.087-6.569
			c0.605-1.911,1.197-3.827,1.79-5.738l0.259-0.836c1.263-4.098,2.568-8.412,3.99-13.191c1.24-4.181,2.498-8.513,3.839-13.236
			c1.354-4.811,2.56-9.156,3.685-13.284l4.485-16.629l0.542-1.517c0.065-0.148,0.131-0.299,0.23-0.449l0.204-0.324
			c0.05-0.09,0.101-0.171,0.193-0.284c0.492-0.708,1.173-1.384,2.097-2.077c0.278-0.226,0.585-0.419,0.912-0.623
			c0.13-0.083,0.26-0.166,0.353-0.229c0.161-0.085,0.319-0.171,0.48-0.259c0.306-0.168,0.615-0.336,0.959-0.484
			c0.992-0.48,2.09-0.849,3.033-1.153c1.158-0.347,2.213-0.61,3.228-0.801c2.087-0.407,4.331-0.668,6.682-0.781
			c4.29-0.198,8.86,0.063,13.566,0.776c2.247,0.347,4.269,0.728,6.177,1.152l0.214-0.59l0.269-0.738
			c-2.16-0.513-4.305-0.957-6.419-1.318c-1.14-0.196-2.285-0.375-3.436-0.54l-1.722-0.211c-0.347-0.042-0.696-0.075-1.048-0.11
			l-0.686-0.068c-2.44-0.233-4.658-0.347-6.775-0.347h-0.19c-2.536,0-4.834,0.146-7.019,0.447c-0.409,0.05-0.821,0.121-1.233,0.188
			l-0.522,0.088c-0.419,0.073-0.838,0.166-1.256,0.261l-0.504,0.111c-1.178,0.306-2.328,0.618-3.44,1.067
			c-0.45,0.156-0.885,0.356-1.304,0.55l-0.735,0.359c-0.439,0.234-0.892,0.472-1.316,0.761c-1.237,0.793-2.202,1.632-2.933,2.537
			c-0.134,0.132-0.238,0.283-0.344,0.432l-0.276,0.389c-0.178,0.226-0.314,0.47-0.444,0.706l-0.369,0.668l-0.382,0.932
			c-0.035,0.09-0.061,0.166-0.086,0.238c-0.02,0.061-0.037,0.118-0.064,0.193l-5.655,16.28c-0.292,0.839-0.572,1.66-0.849,2.471
			c-1.293,3.774-2.476,7.257-3.586,10.58C1033.394,838.797,1032.705,840.881,1032.034,842.938z"/>
	</g>
	<g>
		<path fill="#55C7DD" d="M968.481,975.953c-2.715,1.768-4.475,4.111-6.698,6.404c-1.667,1.72,0.444,4.392,2.521,3.267
			c4.586-2.481,10.332-3.576,15.341-4.957c5.313-1.461,10.699-1.921,16.188-1.811c11.496,0.236,23.063,2.313,34.059,5.608
			c10.633,3.181,20.994,7.807,30.375,13.755c0.399,0.254,0.809,0.495,1.205,0.754c2.119,1.386,4.141,2.898,6.078,4.507
			c2.503,2.079,4.861,4.327,7.089,6.723c2.172,2.34,4.101,4.866,6.509,6.986c2.287,2.013,4.091,4.718,7.282,5.351
			c1.544,0.307,3.565-0.138,4.286-1.745c0.055-0.118,0.101-0.238,0.146-0.357c2.588-6.431-2.377-13.943-6.264-18.81
			c-4.344-5.44-10.127-9.899-15.785-13.877c-1.138-0.798-2.301-1.567-3.48-2.315c0.874-0.839,1.743-1.68,2.602-2.531
			c2.285-2.266,4.726-4.29,7.313-6.117c0.377-0.241,0.743-0.495,1.1-0.771c1.783-1.203,3.64-2.313,5.565-3.342
			c4.756-2.539,9.716-4.455,15.099-5.027c0.185-0.021,0.365-0.05,0.551-0.068c2.768-0.243,5.575,0,8.342,0.128
			c2.664,0.123,5.409,1.042,7.978,0.103c1.711-0.625,2.554-2.403,1.658-4.075c-2.801-5.217-11.549-6.074-16.797-5.88
			c-1.924,0.07-3.822,0.306-5.696,0.668c-0.291,0.058-0.587,0.116-0.879,0.178c-1.06,0.229-2.114,0.5-3.154,0.806
			c-3.345,0.987-6.586,2.346-9.692,3.924c-8.242,4.181-15.258,10.632-20.526,18.208c-2.659-1.414-5.389-2.707-8.161-3.912
			c-5.863-2.551-11.923-4.668-17.979-6.431c-11.763-3.423-24.251-5.286-36.5-4.184c-0.281,0.025-0.56,0.061-0.84,0.088
			c-0.375,0.038-0.75,0.073-1.124,0.118c-0.118,0.013-0.237,0.022-0.356,0.038c-0.164,0.017-0.326,0.042-0.491,0.063
			c-6.188,0.773-12.346,1.971-18.231,4.058C974.04,972.565,971.203,974.181,968.481,975.953z"/>
	</g>
	<g>
		<polygon fill="#FEC20F" points="1086.203,801.358 1084.53,805.956 1084.265,806.694 1082.487,811.589 1082.218,812.327 
			1079.433,819.999 1093.108,820.875 1099.949,821.314 1100.351,818.279 1100.459,817.472 1101.17,812.136 1101.275,811.335 
			1101.933,806.396 1102.028,805.69 1102.134,804.894 1108.719,755.454 1102.878,755.454 1086.686,800.03 1086.417,800.768 		"/>
	</g>
	<g>
		<path fill="#FBB040" d="M1091.216,744.561C1091.063,743.979,1090.965,743.612,1091.216,744.561L1091.216,744.561z"/>
	</g>
	<g>
		<path fill="none" stroke="#FBB040" stroke-width="0" stroke-linecap="round" stroke-linejoin="round" d="M1091.216,744.561
			c0.01,0.03,0.015,0.058,0.024,0.09"/>
	</g>
	<g>
		<path fill="#FEC20F" d="M1091.316,744.945c-1.131-4.279-14.962-20.622-21.391-14.273
			C1058.701,741.756,1095.206,759.673,1091.316,744.945z"/>
	</g>
	<g>
		<path fill="#FBB040" d="M1091.24,744.651c0.022,0.088,0.048,0.186,0.076,0.294C1091.772,746.676,1091.467,745.508,1091.24,744.651
			z"/>
	</g>
	<g>
		<path fill="#FBB040" d="M1093.935,699.993C1094.068,699.976,1093.717,699.96,1093.935,699.993L1093.935,699.993z"/>
	</g>
	<g>
		<path fill="#FBB040" d="M1093.935,699.993C1092.616,699.807,1093.495,700.045,1093.935,699.993L1093.935,699.993z"/>
	</g>
	<g>
		<path fill="#FEC20F" d="M1105.017,724.504c-0.497-1.803-0.288-1.052-0.002-0.013c-2.409-8.756-2.766-21.187-12.243-24.687
			C1073.818,692.778,1112.013,749.892,1105.017,724.504z"/>
	</g>
	<g>
		<path fill="#FBB040" d="M1105.015,724.492c0.002,0.005,0.002,0.01,0.002,0.013
			C1105.961,727.925,1105.411,725.931,1105.015,724.492z"/>
	</g>
	<g>
		<path fill="#FBB040" d="M1145.954,712.109c0.03,0.078,0.05,0.13,0.055,0.148C1146.004,712.242,1145.984,712.192,1145.954,712.109z
			"/>
	</g>
	<g>
		<path fill="#FEC20F" d="M1118.86,737.269c7.798,1.198,29.996-17.299,26.059-27.962
			C1139.44,694.451,1111.021,736.063,1118.86,737.269z"/>
	</g>
	<g>
		<path fill="#FBB040" d="M1144.849,709.116C1144.834,709.068,1144.834,709.071,1144.849,709.116L1144.849,709.116z"/>
	</g>
	<g>
		<path fill="#FBB040" d="M1144.849,709.116c0.016,0.035,0.035,0.09,0.07,0.19c0.613,1.658,0.919,2.489,1.035,2.803
			C1145.737,711.517,1144.962,709.417,1144.849,709.116z"/>
	</g>
	<g>
		<path fill="#FEC20F" d="M1125.018,760.783c4.182,6.356,29.293,6.594,23.596-3.151
			C1145.087,751.6,1119.787,752.835,1125.018,760.783z"/>
	</g>
	<g>
		<path fill="#FBB040" d="M1148.613,757.632C1149.773,759.615,1146.787,754.508,1148.613,757.632L1148.613,757.632z"/>
	</g>
</g>
</svg>
