<?xml version="1.0" standalone="no"?>
<!DOCTYPE svg PUBLIC "-//W3C//DTD SVG 20010904//EN"
 "http://www.w3.org/TR/2001/REC-SVG-20010904/DTD/svg10.dtd">
<svg version="1.0" xmlns="http://www.w3.org/2000/svg"
 width="86.000000pt" height="86.000000pt" viewBox="0 0 86.000000 86.000000"
 preserveAspectRatio="xMidYMid meet">
<metadata>
Created by potrace 1.11, written by Peter Selinger 2001-2013
</metadata>
<g transform="translate(0.000000,86.000000) scale(0.100000,-0.100000)"
fill="#000000" stroke="none">
<path d="M570 853 c0 -19 11 -43 21 -43 13 0 11 14 -6 36 -8 10 -15 14 -15 7z"/>
<path d="M644 842 c-6 -4 -17 -17 -23 -30 -12 -22 -11 -23 7 -13 26 14 45 38
35 44 -5 3 -14 3 -19 -1z"/>
<path d="M536 801 c-4 -5 3 -15 15 -21 18 -10 20 -9 17 6 -4 20 -23 30 -32 15z"/>
<path d="M580 735 c-10 -31 -16 -35 -46 -35 -23 0 -34 -5 -34 -14 0 -27 -18
-27 -56 -1 -21 14 -42 24 -48 22 -6 -2 -11 -21 -11 -42 0 -25 -5 -40 -15 -43
-8 -3 -28 -18 -44 -34 -16 -16 -45 -35 -64 -41 -39 -13 -74 -54 -77 -89 -1
-15 -9 -24 -22 -26 -33 -5 -74 -56 -79 -98 -6 -48 12 -85 51 -103 35 -16 43
-28 67 -95 29 -80 54 -97 173 -122 50 -10 145 -4 195 13 53 17 56 20 78 78 17
42 33 66 52 77 42 24 62 62 66 122 2 46 -2 61 -27 100 -17 28 -50 60 -79 78
-28 17 -50 33 -50 35 0 3 8 34 17 70 l18 65 -25 20 c-19 16 -24 27 -21 59 3
48 -4 50 -19 4z"/>
<path d="M630 760 c0 -5 9 -10 20 -10 11 0 20 5 20 10 0 6 -9 10 -20 10 -11 0
-20 -4 -20 -10z"/>
</g>
</svg>
